<svg xmlns="http://www.w3.org/2000/svg" xmlns:xlink="http://www.w3.org/1999/xlink" zoomAndPan="magnify"
    viewBox="0 0 375 374.999991" preserveAspectRatio="xMidYMid meet" version="1.2">
    <metadata>
        <ContainsAiGeneratedContent>Yes</ContainsAiGeneratedContent>
    </metadata>
    <defs>
        <clipPath id="a7746a7c1b">
            <path d="M 47 2 L 327.953125 2 L 327.953125 375 L 47 375 Z M 47 2 " />
        </clipPath>
    </defs>
    <g id="8d646d3a51">
        <g clip-rule="nonzero" clip-path="url(#a7746a7c1b)">
            <path style=" stroke:none;fill-rule:evenodd;fill:currentColor;fill-opacity:1;"
                d="M 301.222656 107.628906 L 314.699219 107.628906 C 310.558594 140.730469 292.726562 283.570312 285.433594 342.015625 C 284.023438 353.253906 274.488281 361.691406 263.179688 361.691406 C 224.851562 361.691406 152.414062 361.691406 114.085938 361.691406 C 102.78125 361.691406 93.242188 353.253906 91.832031 342.015625 C 91.832031 342.015625 62.570312 107.628906 62.570312 107.628906 C 62.570312 107.628906 271.863281 107.628906 271.863281 107.628906 C 275.253906 107.628906 278.019531 104.859375 278.019531 101.464844 C 278.019531 98.0625 275.253906 95.300781 271.863281 95.300781 L 55.597656 95.300781 C 53.835938 95.300781 52.152344 96.058594 50.988281 97.386719 C 49.8125 98.707031 49.273438 100.46875 49.492188 102.222656 C 49.492188 102.222656 71.339844 277.226562 79.625 343.542969 C 81.792969 360.953125 96.566406 374.019531 114.085938 374.019531 C 152.414062 374.019531 224.851562 374.019531 263.179688 374.019531 C 280.699219 374.019531 295.472656 360.953125 297.652344 343.542969 C 305.925781 277.226562 327.777344 102.222656 327.777344 102.222656 C 327.992188 100.46875 327.453125 98.707031 326.28125 97.386719 C 325.113281 96.058594 323.429688 95.300781 321.667969 95.300781 L 301.222656 95.300781 C 297.820312 95.300781 295.066406 98.0625 295.066406 101.464844 C 295.066406 104.859375 297.820312 107.628906 301.222656 107.628906 Z M 182.472656 168.054688 L 182.472656 301.253906 C 182.472656 304.648438 185.238281 307.417969 188.628906 307.417969 C 192.027344 307.417969 194.785156 304.648438 194.785156 301.253906 L 194.785156 168.054688 C 194.785156 164.660156 192.027344 161.890625 188.628906 161.890625 C 185.238281 161.890625 182.472656 164.660156 182.472656 168.054688 Z M 111.4375 168.796875 L 122.363281 301.539062 C 122.648438 304.925781 125.621094 307.445312 129.003906 307.171875 C 132.394531 306.886719 134.914062 303.910156 134.636719 300.523438 L 123.710938 167.78125 C 123.425781 164.386719 120.453125 161.863281 117.0625 162.140625 C 113.679688 162.421875 111.160156 165.402344 111.4375 168.796875 Z M 251.738281 167.78125 L 240.808594 300.523438 C 240.535156 303.910156 243.054688 306.886719 246.433594 307.171875 C 249.824219 307.445312 252.800781 304.925781 253.082031 301.539062 L 264.011719 168.796875 C 264.285156 165.402344 261.769531 162.421875 258.386719 162.140625 C 254.996094 161.863281 252.023438 164.386719 251.738281 167.78125 Z M 142.320312 53.269531 L 51.886719 77.53125 C 48.609375 78.40625 46.660156 81.789062 47.539062 85.082031 C 48.410156 88.363281 51.792969 90.316406 55.078125 89.433594 L 312.074219 20.492188 C 315.359375 19.609375 317.3125 16.222656 316.429688 12.945312 C 315.550781 9.652344 312.167969 7.699219 308.890625 8.582031 L 218.460938 32.84375 L 211.441406 6.628906 C 210.5625 3.339844 207.191406 1.394531 203.902344 2.277344 L 139.65625 19.503906 C 136.371094 20.386719 134.421875 23.773438 135.300781 27.0625 Z M 206.566406 36.03125 L 201.148438 15.777344 C 201.148438 15.777344 148.785156 29.820312 148.785156 29.820312 L 154.214844 50.074219 Z M 206.566406 36.03125 " />
        </g>
    </g>
</svg>