<svg xmlns="http://www.w3.org/2000/svg" xmlns:xlink="http://www.w3.org/1999/xlink" width="945" zoomAndPan="magnify" viewBox="0 0 1440 809.999993" height="756" preserveAspectRatio="xMidYMid meet" version="1.0"><defs><clipPath id="6b39e94a9f"><path d="M 213.75 122 L 1226.25 122 L 1226.25 688 L 213.75 688 Z M 213.75 122 " clip-rule="nonzero"/></clipPath><clipPath id="c1cfcdb5db"><path d="M 0.75 1 L 1013.25 1 L 1013.25 565 L 0.75 565 Z M 0.75 1 " clip-rule="nonzero"/></clipPath><clipPath id="895d4ccb4f"><rect x="0" width="1014" y="0" height="566"/></clipPath></defs><g clip-path="url(#6b39e94a9f)"><g transform="matrix(1, 0, 0, 1, 213, 122)"><g clip-path="url(#895d4ccb4f)"><g clip-path="url(#c1cfcdb5db)"><path fill="#000000" d="M 955.835938 1.714844 C 952.167969 1.800781 948.542969 2.246094 944.957031 3.042969 C 941.375 3.839844 937.90625 4.976562 934.546875 6.457031 C 931.1875 7.933594 928 9.722656 924.992188 11.824219 C 921.984375 13.925781 919.207031 16.300781 916.664062 18.949219 L 506.929688 428.8125 L 97.195312 18.949219 C 94.578125 16.257812 91.71875 13.851562 88.617188 11.734375 C 85.519531 9.613281 82.238281 7.824219 78.78125 6.363281 C 75.320312 4.902344 71.753906 3.800781 68.074219 3.054688 C 64.394531 2.308594 60.675781 1.933594 56.921875 1.933594 C 55.535156 1.933594 54.148438 1.988281 52.765625 2.089844 C 51.382812 2.191406 50.003906 2.347656 48.632812 2.550781 C 47.261719 2.757812 45.898438 3.011719 44.542969 3.320312 C 43.191406 3.625 41.851562 3.980469 40.523438 4.386719 C 39.195312 4.792969 37.886719 5.246094 36.59375 5.75 C 35.300781 6.25 34.027344 6.800781 32.773438 7.398438 C 31.523438 7.996094 30.292969 8.636719 29.089844 9.324219 C 27.882812 10.011719 26.703125 10.746094 25.554688 11.519531 C 24.402344 12.292969 23.28125 13.113281 22.191406 13.96875 C 21.101562 14.828125 20.042969 15.726562 19.019531 16.660156 C 17.996094 17.597656 17.007812 18.570312 16.058594 19.582031 C 15.105469 20.589844 14.191406 21.636719 13.316406 22.710938 C 12.441406 23.789062 11.609375 24.898438 10.816406 26.039062 C 10.023438 27.175781 9.273438 28.34375 8.570312 29.539062 C 7.863281 30.734375 7.203125 31.953125 6.585938 33.195312 C 5.96875 34.441406 5.402344 35.703125 4.878906 36.992188 C 4.359375 38.277344 3.882812 39.578125 3.457031 40.902344 C 3.03125 42.222656 2.65625 43.558594 2.328125 44.90625 C 2.003906 46.253906 1.726562 47.613281 1.5 48.984375 C 1.273438 50.351562 1.097656 51.726562 0.976562 53.109375 C 0.851562 54.492188 0.777344 55.878906 0.757812 57.265625 C 0.734375 58.652344 0.765625 60.039062 0.847656 61.425781 C 0.925781 62.8125 1.058594 64.191406 1.242188 65.566406 C 1.425781 66.941406 1.660156 68.308594 1.945312 69.667969 C 2.230469 71.027344 2.5625 72.375 2.949219 73.707031 C 3.332031 75.039062 3.765625 76.359375 4.246094 77.660156 C 4.730469 78.960938 5.257812 80.242188 5.835938 81.503906 C 6.410156 82.765625 7.035156 84.007812 7.703125 85.222656 C 8.371094 86.4375 9.085938 87.628906 9.839844 88.792969 C 10.597656 89.957031 11.394531 91.089844 12.238281 92.191406 C 13.078125 93.296875 13.957031 94.367188 14.878906 95.40625 C 15.796875 96.445312 16.753906 97.449219 17.75 98.417969 L 467.207031 548.015625 C 468.507812 549.316406 469.867188 550.550781 471.292969 551.71875 C 472.714844 552.886719 474.191406 553.980469 475.71875 555.003906 C 477.25 556.023438 478.824219 556.96875 480.449219 557.835938 C 482.070312 558.703125 483.730469 559.488281 485.433594 560.195312 C 487.132812 560.898438 488.863281 561.515625 490.621094 562.050781 C 492.382812 562.585938 494.164062 563.03125 495.96875 563.390625 C 497.773438 563.75 499.589844 564.019531 501.421875 564.199219 C 503.253906 564.378906 505.089844 564.46875 506.929688 564.46875 C 508.769531 564.46875 510.601562 564.378906 512.433594 564.199219 C 514.265625 564.019531 516.082031 563.75 517.886719 563.390625 C 519.691406 563.03125 521.472656 562.585938 523.234375 562.050781 C 524.996094 561.515625 526.726562 560.898438 528.425781 560.195312 C 530.125 559.488281 531.785156 558.703125 533.410156 557.835938 C 535.03125 556.96875 536.609375 556.023438 538.136719 555.003906 C 539.667969 553.980469 541.144531 552.886719 542.566406 551.71875 C 543.988281 550.550781 545.351562 549.316406 546.652344 548.015625 L 996.109375 98.417969 C 997.121094 97.445312 998.09375 96.433594 999.03125 95.386719 C 999.96875 94.339844 1000.867188 93.257812 1001.722656 92.144531 C 1002.578125 91.027344 1003.390625 89.882812 1004.160156 88.707031 C 1004.929688 87.53125 1005.65625 86.328125 1006.335938 85.101562 C 1007.015625 83.871094 1007.648438 82.617188 1008.234375 81.339844 C 1008.820312 80.0625 1009.355469 78.765625 1009.84375 77.445312 C 1010.332031 76.128906 1010.773438 74.792969 1011.160156 73.445312 C 1011.546875 72.09375 1011.886719 70.730469 1012.171875 69.355469 C 1012.457031 67.976562 1012.691406 66.59375 1012.875 65.199219 C 1013.058594 63.804688 1013.1875 62.40625 1013.265625 61.003906 C 1013.34375 59.601562 1013.367188 58.195312 1013.339844 56.792969 C 1013.3125 55.386719 1013.230469 53.984375 1013.097656 52.585938 C 1012.964844 51.1875 1012.78125 49.792969 1012.542969 48.410156 C 1012.304688 47.023438 1012.015625 45.648438 1011.675781 44.285156 C 1011.335938 42.921875 1010.945312 41.574219 1010.503906 40.238281 C 1010.0625 38.90625 1009.570312 37.589844 1009.03125 36.292969 C 1008.488281 34.996094 1007.902344 33.71875 1007.265625 32.464844 C 1006.628906 31.210938 1005.949219 29.984375 1005.21875 28.78125 C 1004.492188 27.582031 1003.71875 26.40625 1002.902344 25.265625 C 1002.085938 24.121094 1001.230469 23.007812 1000.332031 21.929688 C 999.429688 20.847656 998.492188 19.804688 997.515625 18.792969 C 996.539062 17.785156 995.523438 16.8125 994.472656 15.878906 C 993.421875 14.945312 992.339844 14.054688 991.222656 13.203125 C 990.105469 12.351562 988.957031 11.542969 987.777344 10.777344 C 986.601562 10.011719 985.394531 9.289062 984.164062 8.613281 C 982.929688 7.9375 981.675781 7.3125 980.394531 6.730469 C 979.117188 6.148438 977.816406 5.617188 976.496094 5.132812 C 975.179688 4.648438 973.84375 4.214844 972.492188 3.832031 C 971.140625 3.449219 969.777344 3.117188 968.398438 2.835938 C 967.023438 2.554688 965.636719 2.324219 964.242188 2.148438 C 962.851562 1.972656 961.453125 1.847656 960.046875 1.773438 C 958.644531 1.703125 957.242188 1.683594 955.835938 1.714844 Z M 955.835938 1.714844 " fill-opacity="1" fill-rule="nonzero"/></g></g></g></g></svg>