<svg xmlns="http://www.w3.org/2000/svg" xmlns:xlink="http://www.w3.org/1999/xlink" width="945" zoomAndPan="magnify" viewBox="0 0 1440 809.999993" height="756" preserveAspectRatio="xMidYMid meet" version="1.0"><defs><clipPath id="1edb9dfa8a"><path d="M 213.75 0 L 1226.25 0 L 1226.25 810 L 213.75 810 Z M 213.75 0 " clip-rule="nonzero"/></clipPath><clipPath id="2b22256ed5"><path d="M 0.75 0 L 1013.25 0 L 1013.25 271 L 0.75 271 Z M 0.75 0 " clip-rule="nonzero"/></clipPath><clipPath id="a1fbc9f5f9"><path d="M 0.75 540 L 1013.25 540 L 1013.25 810 L 0.75 810 Z M 0.75 540 " clip-rule="nonzero"/></clipPath><clipPath id="0da9efe558"><path d="M 0.75 270 L 1013.25 270 L 1013.25 541 L 0.75 541 Z M 0.75 270 " clip-rule="nonzero"/></clipPath><clipPath id="a5dfec26c9"><rect x="0" width="1014" y="0" height="810"/></clipPath></defs><g clip-path="url(#1edb9dfa8a)"><g transform="matrix(1, 0, 0, 1, 213, 0.000000000000039746)"><g clip-path="url(#a5dfec26c9)"><g clip-path="url(#2b22256ed5)"><path fill="#000000" d="M 979.617188 101.261719 L 367.253906 101.261719 C 366.34375 97.675781 365.28125 94.132812 364.078125 90.632812 C 362.871094 87.132812 361.523438 83.6875 360.03125 80.300781 C 358.542969 76.910156 356.914062 73.589844 355.148438 70.335938 C 353.382812 67.082031 351.488281 63.90625 349.460938 60.808594 C 347.433594 57.710938 345.28125 54.703125 343.003906 51.785156 C 340.726562 48.863281 338.335938 46.042969 335.828125 43.324219 C 333.316406 40.601562 330.699219 37.988281 327.976562 35.480469 C 325.25 32.976562 322.425781 30.589844 319.503906 28.316406 C 316.582031 26.042969 313.570312 23.898438 310.46875 21.875 C 307.367188 19.851562 304.191406 17.957031 300.933594 16.199219 C 297.679688 14.4375 294.355469 12.816406 290.964844 11.328125 C 287.574219 9.84375 284.128906 8.5 280.625 7.300781 C 277.125 6.097656 273.578125 5.042969 269.988281 4.136719 C 266.402344 3.226562 262.78125 2.46875 259.128906 1.859375 C 255.480469 1.253906 251.808594 0.796875 248.121094 0.488281 C 244.429688 0.183594 240.734375 0.03125 237.03125 0.03125 C 233.332031 0.03125 229.636719 0.183594 225.945312 0.488281 C 222.257812 0.796875 218.585938 1.253906 214.9375 1.859375 C 211.285156 2.46875 207.664062 3.226562 204.074219 4.136719 C 200.488281 5.042969 196.941406 6.097656 193.441406 7.300781 C 189.9375 8.5 186.492188 9.84375 183.101562 11.328125 C 179.710938 12.816406 176.386719 14.4375 173.132812 16.199219 C 169.875 17.957031 166.695312 19.851562 163.597656 21.875 C 160.496094 23.898438 157.484375 26.042969 154.5625 28.316406 C 151.640625 30.589844 148.816406 32.976562 146.089844 35.480469 C 143.367188 37.988281 140.75 40.601562 138.238281 43.324219 C 135.730469 46.042969 133.335938 48.863281 131.0625 51.785156 C 128.785156 54.703125 126.632812 57.710938 124.605469 60.808594 C 122.578125 63.90625 120.683594 67.082031 118.917969 70.335938 C 117.152344 73.589844 115.523438 76.910156 114.035156 80.300781 C 112.542969 83.6875 111.195312 87.132812 109.988281 90.632812 C 108.785156 94.132812 107.722656 97.675781 106.8125 101.261719 L 34.511719 101.261719 C 33.40625 101.261719 32.300781 101.316406 31.203125 101.425781 C 30.101562 101.535156 29.007812 101.695312 27.925781 101.910156 C 26.839844 102.125 25.769531 102.394531 24.710938 102.714844 C 23.652344 103.035156 22.613281 103.410156 21.59375 103.832031 C 20.570312 104.253906 19.574219 104.726562 18.597656 105.25 C 17.625 105.769531 16.675781 106.335938 15.757812 106.953125 C 14.839844 107.566406 13.953125 108.222656 13.097656 108.925781 C 12.242188 109.625 11.425781 110.367188 10.640625 111.148438 C 9.859375 111.929688 9.121094 112.75 8.417969 113.601562 C 7.714844 114.457031 7.058594 115.34375 6.445312 116.265625 C 5.832031 117.183594 5.261719 118.128906 4.742188 119.105469 C 4.222656 120.082031 3.75 121.078125 3.324219 122.101562 C 2.902344 123.121094 2.53125 124.160156 2.210938 125.21875 C 1.890625 126.277344 1.621094 127.347656 1.40625 128.433594 C 1.1875 129.515625 1.027344 130.609375 0.917969 131.707031 C 0.808594 132.808594 0.757812 133.910156 0.757812 135.015625 C 0.757812 136.121094 0.808594 137.226562 0.917969 138.324219 C 1.027344 139.425781 1.1875 140.519531 1.40625 141.601562 C 1.621094 142.6875 1.890625 143.757812 2.210938 144.816406 C 2.53125 145.875 2.902344 146.914062 3.324219 147.933594 C 3.75 148.957031 4.222656 149.953125 4.742188 150.929688 C 5.261719 151.902344 5.832031 152.851562 6.445312 153.769531 C 7.058594 154.6875 7.714844 155.574219 8.417969 156.429688 C 9.121094 157.285156 9.859375 158.101562 10.640625 158.882812 C 11.425781 159.667969 12.242188 160.40625 13.097656 161.109375 C 13.953125 161.8125 14.839844 162.46875 15.757812 163.082031 C 16.675781 163.695312 17.625 164.265625 18.597656 164.785156 C 19.574219 165.304688 20.570312 165.777344 21.59375 166.203125 C 22.613281 166.625 23.652344 166.996094 24.710938 167.316406 C 25.769531 167.636719 26.839844 167.90625 27.925781 168.121094 C 29.007812 168.339844 30.101562 168.5 31.203125 168.609375 C 32.300781 168.71875 33.40625 168.769531 34.511719 168.769531 L 106.8125 168.769531 C 107.722656 172.359375 108.785156 175.902344 109.988281 179.402344 C 111.195312 182.902344 112.542969 186.347656 114.035156 189.734375 C 115.523438 193.121094 117.152344 196.445312 118.917969 199.699219 C 120.683594 202.953125 122.578125 206.128906 124.605469 209.226562 C 126.632812 212.320312 128.785156 215.332031 131.0625 218.25 C 133.335938 221.167969 135.730469 223.988281 138.238281 226.710938 C 140.75 229.433594 143.367188 232.046875 146.089844 234.550781 C 148.816406 237.058594 151.640625 239.445312 154.5625 241.71875 C 157.484375 243.988281 160.496094 246.136719 163.597656 248.160156 C 166.695312 250.183594 169.875 252.074219 173.132812 253.835938 C 176.386719 255.59375 179.710938 257.21875 183.101562 258.703125 C 186.492188 260.191406 189.9375 261.535156 193.441406 262.734375 C 196.941406 263.933594 200.488281 264.988281 204.074219 265.898438 C 207.664062 266.804688 211.285156 267.5625 214.9375 268.171875 C 218.585938 268.78125 222.257812 269.238281 225.945312 269.542969 C 229.636719 269.847656 233.332031 270.003906 237.03125 270.003906 C 240.734375 270.003906 244.429688 269.847656 248.121094 269.542969 C 251.808594 269.238281 255.480469 268.78125 259.128906 268.171875 C 262.78125 267.5625 266.402344 266.804688 269.988281 265.898438 C 273.578125 264.988281 277.125 263.933594 280.625 262.734375 C 284.128906 261.535156 287.574219 260.191406 290.964844 258.703125 C 294.355469 257.21875 297.679688 255.59375 300.933594 253.835938 C 304.191406 252.074219 307.367188 250.183594 310.46875 248.160156 C 313.570312 246.136719 316.582031 243.988281 319.503906 241.71875 C 322.425781 239.445312 325.25 237.058594 327.976562 234.550781 C 330.699219 232.046875 333.316406 229.433594 335.828125 226.710938 C 338.335938 223.988281 340.726562 221.167969 343.003906 218.25 C 345.28125 215.332031 347.433594 212.320312 349.460938 209.226562 C 351.488281 206.128906 353.382812 202.953125 355.148438 199.699219 C 356.914062 196.445312 358.542969 193.121094 360.03125 189.734375 C 361.523438 186.347656 362.871094 182.902344 364.078125 179.402344 C 365.28125 175.902344 366.34375 172.359375 367.253906 168.769531 L 979.617188 168.769531 C 980.722656 168.769531 981.824219 168.71875 982.925781 168.609375 C 984.023438 168.5 985.117188 168.339844 986.203125 168.121094 C 987.285156 167.90625 988.355469 167.636719 989.414062 167.316406 C 990.472656 166.996094 991.511719 166.625 992.535156 166.203125 C 993.554688 165.777344 994.554688 165.304688 995.527344 164.785156 C 996.503906 164.265625 997.449219 163.695312 998.367188 163.082031 C 999.289062 162.46875 1000.175781 161.8125 1001.03125 161.109375 C 1001.882812 160.40625 1002.703125 159.667969 1003.484375 158.882812 C 1004.265625 158.101562 1005.007812 157.285156 1005.707031 156.429688 C 1006.410156 155.574219 1007.066406 154.6875 1007.679688 153.769531 C 1008.296875 152.851562 1008.863281 151.902344 1009.382812 150.929688 C 1009.90625 149.953125 1010.378906 148.957031 1010.800781 147.933594 C 1011.222656 146.914062 1011.597656 145.875 1011.917969 144.816406 C 1012.238281 143.757812 1012.507812 142.6875 1012.722656 141.601562 C 1012.9375 140.519531 1013.097656 139.425781 1013.207031 138.324219 C 1013.316406 137.226562 1013.371094 136.121094 1013.371094 135.015625 C 1013.371094 133.910156 1013.316406 132.808594 1013.207031 131.707031 C 1013.097656 130.609375 1012.9375 129.515625 1012.722656 128.433594 C 1012.507812 127.347656 1012.238281 126.277344 1011.917969 125.21875 C 1011.597656 124.160156 1011.222656 123.121094 1010.800781 122.101562 C 1010.378906 121.078125 1009.90625 120.082031 1009.382812 119.105469 C 1008.863281 118.128906 1008.296875 117.183594 1007.683594 116.265625 C 1007.066406 115.34375 1006.410156 114.457031 1005.707031 113.601562 C 1005.007812 112.75 1004.265625 111.929688 1003.484375 111.148438 C 1002.703125 110.367188 1001.882812 109.625 1001.03125 108.925781 C 1000.175781 108.222656 999.289062 107.566406 998.367188 106.953125 C 997.449219 106.335938 996.503906 105.769531 995.527344 105.25 C 994.554688 104.726562 993.554688 104.253906 992.535156 103.832031 C 991.511719 103.410156 990.472656 103.035156 989.414062 102.714844 C 988.355469 102.394531 987.285156 102.125 986.203125 101.910156 C 985.117188 101.695312 984.023438 101.535156 982.925781 101.425781 C 981.824219 101.316406 980.722656 101.261719 979.617188 101.261719 Z M 237.03125 202.523438 C 235.929688 202.523438 234.824219 202.5 233.71875 202.445312 C 232.617188 202.390625 231.515625 202.308594 230.414062 202.199219 C 229.316406 202.09375 228.21875 201.957031 227.128906 201.792969 C 226.035156 201.632812 224.945312 201.445312 223.863281 201.226562 C 222.777344 201.011719 221.703125 200.769531 220.628906 200.503906 C 219.558594 200.234375 218.492188 199.9375 217.4375 199.617188 C 216.378906 199.296875 215.332031 198.953125 214.289062 198.578125 C 213.25 198.207031 212.21875 197.808594 211.199219 197.386719 C 210.179688 196.964844 209.167969 196.515625 208.167969 196.042969 C 207.171875 195.570312 206.183594 195.074219 205.210938 194.554688 C 204.234375 194.03125 203.273438 193.488281 202.328125 192.921875 C 201.378906 192.351562 200.445312 191.761719 199.527344 191.148438 C 198.609375 190.535156 197.707031 189.898438 196.820312 189.238281 C 195.929688 188.582031 195.058594 187.902344 194.207031 187.203125 C 193.351562 186.5 192.515625 185.777344 191.699219 185.039062 C 190.878906 184.296875 190.078125 183.535156 189.296875 182.753906 C 188.515625 181.972656 187.753906 181.171875 187.011719 180.351562 C 186.269531 179.535156 185.550781 178.699219 184.847656 177.84375 C 184.148438 176.988281 183.46875 176.117188 182.808594 175.230469 C 182.152344 174.34375 181.515625 173.441406 180.902344 172.523438 C 180.289062 171.605469 179.699219 170.671875 179.128906 169.722656 C 178.5625 168.777344 178.015625 167.816406 177.496094 166.839844 C 176.976562 165.867188 176.480469 164.878906 176.007812 163.878906 C 175.535156 162.882812 175.085938 161.871094 174.664062 160.851562 C 174.242188 159.832031 173.84375 158.800781 173.472656 157.757812 C 173.097656 156.71875 172.753906 155.671875 172.433594 154.613281 C 172.113281 153.554688 171.816406 152.492188 171.546875 151.421875 C 171.28125 150.347656 171.039062 149.269531 170.824219 148.1875 C 170.605469 147.101562 170.417969 146.015625 170.257812 144.921875 C 170.09375 143.828125 169.957031 142.734375 169.851562 141.632812 C 169.742188 140.535156 169.660156 139.433594 169.605469 138.328125 C 169.550781 137.226562 169.523438 136.121094 169.523438 135.015625 C 169.523438 133.910156 169.550781 132.808594 169.605469 131.703125 C 169.660156 130.601562 169.742188 129.5 169.851562 128.398438 C 169.957031 127.300781 170.09375 126.203125 170.257812 125.113281 C 170.417969 124.019531 170.605469 122.929688 170.824219 121.847656 C 171.039062 120.761719 171.28125 119.683594 171.546875 118.613281 C 171.816406 117.542969 172.113281 116.476562 172.433594 115.421875 C 172.753906 114.363281 173.097656 113.3125 173.472656 112.273438 C 173.84375 111.234375 174.242188 110.203125 174.664062 109.183594 C 175.085938 108.160156 175.535156 107.152344 176.007812 106.152344 C 176.480469 105.15625 176.976562 104.167969 177.496094 103.195312 C 178.015625 102.21875 178.5625 101.257812 179.128906 100.3125 C 179.699219 99.363281 180.289062 98.429688 180.902344 97.511719 C 181.515625 96.59375 182.152344 95.691406 182.808594 94.800781 C 183.46875 93.914062 184.148438 93.042969 184.847656 92.191406 C 185.550781 91.335938 186.269531 90.5 187.011719 89.679688 C 187.753906 88.863281 188.515625 88.0625 189.296875 87.28125 C 190.078125 86.5 190.878906 85.738281 191.699219 84.996094 C 192.515625 84.253906 193.351562 83.53125 194.207031 82.832031 C 195.058594 82.132812 195.929688 81.453125 196.820312 80.792969 C 197.707031 80.136719 198.609375 79.5 199.527344 78.886719 C 200.445312 78.273438 201.378906 77.679688 202.328125 77.113281 C 203.273438 76.546875 204.234375 76 205.210938 75.480469 C 206.183594 74.957031 207.171875 74.460938 208.167969 73.988281 C 209.167969 73.519531 210.179688 73.070312 211.199219 72.648438 C 212.21875 72.222656 213.25 71.828125 214.289062 71.453125 C 215.332031 71.082031 216.378906 70.734375 217.4375 70.414062 C 218.492188 70.09375 219.558594 69.800781 220.628906 69.53125 C 221.703125 69.261719 222.777344 69.019531 223.863281 68.804688 C 224.945312 68.589844 226.035156 68.402344 227.128906 68.238281 C 228.21875 68.078125 229.316406 67.941406 230.414062 67.832031 C 231.515625 67.726562 232.617188 67.644531 233.71875 67.589844 C 234.824219 67.535156 235.929688 67.507812 237.03125 67.507812 C 238.136719 67.507812 239.242188 67.535156 240.34375 67.589844 C 241.449219 67.644531 242.550781 67.726562 243.648438 67.832031 C 244.75 67.941406 245.84375 68.078125 246.9375 68.238281 C 248.03125 68.402344 249.121094 68.589844 250.203125 68.804688 C 251.285156 69.019531 252.363281 69.261719 253.4375 69.53125 C 254.507812 69.800781 255.570312 70.09375 256.628906 70.414062 C 257.6875 70.734375 258.734375 71.082031 259.777344 71.453125 C 260.816406 71.828125 261.847656 72.222656 262.867188 72.648438 C 263.886719 73.070312 264.898438 73.519531 265.894531 73.988281 C 266.894531 74.460938 267.882812 74.957031 268.855469 75.480469 C 269.832031 76 270.792969 76.546875 271.738281 77.113281 C 272.6875 77.679688 273.621094 78.273438 274.539062 78.886719 C 275.457031 79.5 276.359375 80.136719 277.246094 80.792969 C 278.132812 81.453125 279.003906 82.132812 279.859375 82.832031 C 280.714844 83.53125 281.550781 84.253906 282.367188 84.996094 C 283.1875 85.738281 283.988281 86.5 284.769531 87.28125 C 285.550781 88.0625 286.3125 88.863281 287.050781 89.679688 C 287.792969 90.5 288.515625 91.335938 289.21875 92.191406 C 289.917969 93.042969 290.597656 93.914062 291.253906 94.800781 C 291.914062 95.691406 292.550781 96.59375 293.164062 97.511719 C 293.777344 98.429688 294.367188 99.363281 294.9375 100.3125 C 295.503906 101.257812 296.046875 102.21875 296.570312 103.195312 C 297.089844 104.167969 297.585938 105.15625 298.058594 106.152344 C 298.53125 107.152344 298.980469 108.160156 299.402344 109.183594 C 299.824219 110.203125 300.222656 111.234375 300.59375 112.273438 C 300.964844 113.3125 301.3125 114.363281 301.632812 115.421875 C 301.953125 116.476562 302.25 117.542969 302.515625 118.613281 C 302.785156 119.683594 303.027344 120.761719 303.242188 121.847656 C 303.457031 122.929688 303.648438 124.019531 303.808594 125.113281 C 303.972656 126.203125 304.105469 127.300781 304.214844 128.398438 C 304.324219 129.5 304.40625 130.601562 304.460938 131.703125 C 304.511719 132.808594 304.539062 133.910156 304.539062 135.015625 C 304.539062 136.121094 304.511719 137.226562 304.460938 138.328125 C 304.40625 139.433594 304.324219 140.535156 304.214844 141.632812 C 304.105469 142.734375 303.972656 143.828125 303.808594 144.921875 C 303.648438 146.015625 303.457031 147.101562 303.242188 148.1875 C 303.027344 149.269531 302.785156 150.347656 302.515625 151.421875 C 302.25 152.492188 301.953125 153.554688 301.632812 154.613281 C 301.3125 155.671875 300.964844 156.71875 300.59375 157.757812 C 300.222656 158.800781 299.824219 159.832031 299.402344 160.851562 C 298.980469 161.871094 298.53125 162.882812 298.058594 163.878906 C 297.585938 164.878906 297.089844 165.867188 296.570312 166.839844 C 296.046875 167.816406 295.503906 168.777344 294.9375 169.722656 C 294.367188 170.671875 293.777344 171.605469 293.164062 172.523438 C 292.550781 173.441406 291.914062 174.34375 291.253906 175.230469 C 290.597656 176.117188 289.917969 176.988281 289.21875 177.84375 C 288.515625 178.699219 287.792969 179.535156 287.050781 180.351562 C 286.3125 181.171875 285.550781 181.972656 284.769531 182.753906 C 283.988281 183.535156 283.1875 184.296875 282.367188 185.039062 C 281.550781 185.777344 280.714844 186.5 279.859375 187.203125 C 279.003906 187.902344 278.132812 188.582031 277.246094 189.238281 C 276.359375 189.898438 275.457031 190.535156 274.539062 191.148438 C 273.621094 191.761719 272.6875 192.351562 271.738281 192.921875 C 270.792969 193.488281 269.828125 194.03125 268.855469 194.554688 C 267.882812 195.074219 266.894531 195.570312 265.894531 196.042969 C 264.898438 196.515625 263.886719 196.964844 262.867188 197.386719 C 261.847656 197.808594 260.816406 198.207031 259.777344 198.578125 C 258.734375 198.953125 257.6875 199.296875 256.628906 199.617188 C 255.570312 199.9375 254.507812 200.234375 253.4375 200.503906 C 252.363281 200.769531 251.285156 201.011719 250.203125 201.226562 C 249.121094 201.445312 248.03125 201.632812 246.9375 201.792969 C 245.84375 201.957031 244.75 202.09375 243.648438 202.199219 C 242.550781 202.308594 241.449219 202.390625 240.34375 202.445312 C 239.242188 202.5 238.136719 202.523438 237.03125 202.523438 Z M 237.03125 202.523438 " fill-opacity="1" fill-rule="nonzero"/></g><g clip-path="url(#a1fbc9f5f9)"><path fill="#000000" d="M 979.617188 641.332031 L 536.023438 641.332031 C 535.109375 637.742188 534.050781 634.199219 532.84375 630.699219 C 531.640625 627.199219 530.292969 623.753906 528.800781 620.367188 C 527.308594 616.976562 525.683594 613.65625 523.917969 610.402344 C 522.152344 607.148438 520.257812 603.972656 518.230469 600.875 C 516.199219 597.777344 514.050781 594.769531 511.773438 591.851562 C 509.496094 588.933594 507.105469 586.113281 504.59375 583.390625 C 502.085938 580.667969 499.46875 578.054688 496.742188 575.550781 C 494.019531 573.042969 491.195312 570.65625 488.273438 568.382812 C 485.347656 566.113281 482.339844 563.964844 479.238281 561.941406 C 476.136719 559.917969 472.960938 558.027344 469.703125 556.265625 C 466.445312 554.503906 463.125 552.882812 459.734375 551.398438 C 456.34375 549.910156 452.894531 548.566406 449.394531 547.367188 C 445.894531 546.164062 442.347656 545.113281 438.757812 544.203125 C 435.171875 543.296875 431.550781 542.539062 427.898438 541.929688 C 424.246094 541.320312 420.578125 540.863281 416.886719 540.558594 C 413.199219 540.25 409.503906 540.097656 405.800781 540.097656 C 402.101562 540.097656 398.40625 540.25 394.714844 540.558594 C 391.027344 540.863281 387.355469 541.320312 383.703125 541.929688 C 380.054688 542.539062 376.433594 543.296875 372.84375 544.203125 C 369.253906 545.109375 365.710938 546.164062 362.210938 547.367188 C 358.707031 548.566406 355.261719 549.910156 351.871094 551.398438 C 348.480469 552.882812 345.15625 554.503906 341.902344 556.265625 C 338.644531 558.027344 335.464844 559.917969 332.367188 561.941406 C 329.265625 563.964844 326.253906 566.113281 323.332031 568.382812 C 320.410156 570.65625 317.585938 573.042969 314.859375 575.550781 C 312.136719 578.054688 309.519531 580.667969 307.007812 583.390625 C 304.5 586.113281 302.105469 588.933594 299.832031 591.851562 C 297.554688 594.769531 295.402344 597.777344 293.375 600.875 C 291.347656 603.972656 289.453125 607.148438 287.6875 610.402344 C 285.921875 613.65625 284.292969 616.976562 282.804688 620.367188 C 281.3125 623.753906 279.964844 627.199219 278.757812 630.699219 C 277.550781 634.199219 276.492188 637.742188 275.578125 641.332031 L 34.511719 641.332031 C 33.40625 641.332031 32.300781 641.382812 31.203125 641.492188 C 30.101562 641.601562 29.007812 641.761719 27.925781 641.980469 C 26.839844 642.195312 25.769531 642.460938 24.710938 642.785156 C 23.652344 643.105469 22.613281 643.476562 21.59375 643.898438 C 20.570312 644.324219 19.574219 644.792969 18.597656 645.316406 C 17.625 645.835938 16.675781 646.40625 15.757812 647.019531 C 14.839844 647.632812 13.953125 648.289062 13.097656 648.992188 C 12.242188 649.691406 11.425781 650.433594 10.640625 651.214844 C 9.859375 652 9.121094 652.816406 8.417969 653.671875 C 7.714844 654.527344 7.058594 655.414062 6.445312 656.332031 C 5.832031 657.25 5.261719 658.199219 4.742188 659.171875 C 4.222656 660.148438 3.75 661.144531 3.324219 662.167969 C 2.902344 663.1875 2.53125 664.226562 2.210938 665.285156 C 1.890625 666.34375 1.621094 667.414062 1.40625 668.5 C 1.1875 669.582031 1.027344 670.675781 0.917969 671.777344 C 0.808594 672.875 0.757812 673.980469 0.757812 675.085938 C 0.757812 676.191406 0.808594 677.292969 0.917969 678.394531 C 1.027344 679.492188 1.1875 680.585938 1.40625 681.667969 C 1.621094 682.753906 1.890625 683.824219 2.210938 684.882812 C 2.53125 685.941406 2.902344 686.980469 3.324219 688 C 3.75 689.023438 4.222656 690.019531 4.742188 690.996094 C 5.261719 691.972656 5.832031 692.917969 6.445312 693.835938 C 7.058594 694.757812 7.714844 695.644531 8.417969 696.496094 C 9.121094 697.351562 9.859375 698.171875 10.640625 698.953125 C 11.425781 699.734375 12.242188 700.476562 13.097656 701.175781 C 13.953125 701.878906 14.839844 702.535156 15.757812 703.148438 C 16.675781 703.765625 17.625 704.332031 18.597656 704.851562 C 19.574219 705.375 20.570312 705.847656 21.59375 706.269531 C 22.613281 706.691406 23.652344 707.0625 24.710938 707.386719 C 25.769531 707.707031 26.839844 707.972656 27.925781 708.191406 C 29.007812 708.40625 30.101562 708.566406 31.203125 708.675781 C 32.300781 708.785156 33.40625 708.839844 34.511719 708.839844 L 275.578125 708.839844 C 276.492188 712.425781 277.550781 715.96875 278.757812 719.46875 C 279.964844 722.96875 281.3125 726.414062 282.804688 729.800781 C 284.292969 733.191406 285.921875 736.511719 287.6875 739.765625 C 289.453125 743.019531 291.347656 746.195312 293.375 749.292969 C 295.402344 752.390625 297.554688 755.398438 299.832031 758.316406 C 302.105469 761.238281 304.5 764.058594 307.007812 766.777344 C 309.519531 769.5 312.136719 772.113281 314.859375 774.617188 C 317.585938 777.125 320.410156 779.511719 323.332031 781.785156 C 326.253906 784.058594 329.265625 786.203125 332.367188 788.226562 C 335.464844 790.25 338.644531 792.140625 341.902344 793.902344 C 345.15625 795.664062 348.480469 797.285156 351.871094 798.773438 C 355.261719 800.257812 358.707031 801.601562 362.210938 802.800781 C 365.710938 804.003906 369.253906 805.058594 372.84375 805.964844 C 376.433594 806.875 380.054688 807.632812 383.703125 808.238281 C 387.355469 808.847656 391.027344 809.304688 394.714844 809.613281 C 398.40625 809.917969 402.101562 810.070312 405.800781 810.070312 C 409.503906 810.070312 413.199219 809.917969 416.886719 809.613281 C 420.578125 809.304688 424.246094 808.847656 427.898438 808.238281 C 431.550781 807.632812 435.171875 806.875 438.757812 805.964844 C 442.347656 805.058594 445.894531 804.003906 449.394531 802.800781 C 452.894531 801.601562 456.34375 800.257812 459.734375 798.773438 C 463.125 797.285156 466.445312 795.664062 469.703125 793.902344 C 472.960938 792.140625 476.136719 790.25 479.238281 788.226562 C 482.339844 786.203125 485.347656 784.058594 488.273438 781.785156 C 491.195312 779.511719 494.019531 777.125 496.742188 774.617188 C 499.46875 772.113281 502.085938 769.5 504.59375 766.777344 C 507.105469 764.058594 509.496094 761.238281 511.773438 758.316406 C 514.050781 755.398438 516.199219 752.390625 518.230469 749.292969 C 520.257812 746.195312 522.152344 743.019531 523.917969 739.765625 C 525.683594 736.511719 527.308594 733.191406 528.800781 729.800781 C 530.292969 726.414062 531.640625 722.96875 532.84375 719.46875 C 534.050781 715.96875 535.109375 712.425781 536.023438 708.839844 L 979.617188 708.839844 C 980.722656 708.839844 981.824219 708.785156 982.925781 708.675781 C 984.023438 708.566406 985.117188 708.40625 986.203125 708.191406 C 987.285156 707.972656 988.355469 707.707031 989.414062 707.386719 C 990.472656 707.0625 991.511719 706.691406 992.535156 706.269531 C 993.554688 705.847656 994.554688 705.375 995.527344 704.851562 C 996.503906 704.332031 997.449219 703.765625 998.367188 703.148438 C 999.289062 702.535156 1000.175781 701.878906 1001.03125 701.175781 C 1001.882812 700.476562 1002.703125 699.734375 1003.484375 698.953125 C 1004.265625 698.171875 1005.007812 697.351562 1005.707031 696.496094 C 1006.410156 695.644531 1007.066406 694.757812 1007.679688 693.835938 C 1008.296875 692.917969 1008.863281 691.972656 1009.382812 690.996094 C 1009.90625 690.019531 1010.378906 689.023438 1010.800781 688 C 1011.222656 686.980469 1011.597656 685.941406 1011.917969 684.882812 C 1012.238281 683.824219 1012.507812 682.753906 1012.722656 681.667969 C 1012.9375 680.585938 1013.097656 679.492188 1013.207031 678.394531 C 1013.316406 677.292969 1013.371094 676.191406 1013.371094 675.085938 C 1013.371094 673.980469 1013.316406 672.875 1013.207031 671.777344 C 1013.097656 670.675781 1012.9375 669.582031 1012.722656 668.5 C 1012.507812 667.414062 1012.238281 666.34375 1011.917969 665.285156 C 1011.597656 664.226562 1011.222656 663.1875 1010.800781 662.167969 C 1010.378906 661.144531 1009.90625 660.148438 1009.382812 659.171875 C 1008.863281 658.199219 1008.296875 657.25 1007.683594 656.332031 C 1007.066406 655.414062 1006.410156 654.527344 1005.707031 653.671875 C 1005.007812 652.816406 1004.265625 652 1003.484375 651.214844 C 1002.703125 650.433594 1001.882812 649.691406 1001.03125 648.992188 C 1000.175781 648.289062 999.289062 647.632812 998.367188 647.019531 C 997.449219 646.40625 996.503906 645.835938 995.527344 645.316406 C 994.554688 644.792969 993.554688 644.324219 992.535156 643.898438 C 991.511719 643.476562 990.472656 643.105469 989.414062 642.785156 C 988.355469 642.460938 987.285156 642.195312 986.203125 641.980469 C 985.117188 641.761719 984.023438 641.601562 982.925781 641.492188 C 981.824219 641.382812 980.722656 641.332031 979.617188 641.332031 Z M 405.800781 742.59375 C 404.695312 742.59375 403.59375 742.566406 402.488281 742.511719 C 401.386719 742.457031 400.285156 742.375 399.183594 742.269531 C 398.085938 742.160156 396.988281 742.023438 395.894531 741.863281 C 394.804688 741.699219 393.714844 741.511719 392.632812 741.296875 C 391.546875 741.078125 390.46875 740.839844 389.398438 740.570312 C 388.328125 740.300781 387.261719 740.007812 386.207031 739.6875 C 385.148438 739.363281 384.097656 739.019531 383.058594 738.644531 C 382.019531 738.273438 380.988281 737.875 379.96875 737.453125 C 378.945312 737.03125 377.9375 736.582031 376.9375 736.109375 C 375.941406 735.640625 374.953125 735.140625 373.980469 734.621094 C 373.003906 734.101562 372.042969 733.554688 371.097656 732.988281 C 370.148438 732.421875 369.214844 731.828125 368.296875 731.214844 C 367.378906 730.601562 366.476562 729.964844 365.585938 729.308594 C 364.699219 728.648438 363.828125 727.96875 362.976562 727.269531 C 362.121094 726.566406 361.285156 725.847656 360.464844 725.105469 C 359.648438 724.363281 358.847656 723.601562 358.066406 722.820312 C 357.285156 722.039062 356.523438 721.238281 355.78125 720.421875 C 355.039062 719.601562 354.320312 718.765625 353.617188 717.910156 C 352.917969 717.058594 352.238281 716.1875 351.578125 715.300781 C 350.921875 714.410156 350.285156 713.507812 349.671875 712.589844 C 349.058594 711.671875 348.464844 710.738281 347.898438 709.789062 C 347.332031 708.84375 346.785156 707.882812 346.265625 706.90625 C 345.746094 705.933594 345.25 704.945312 344.777344 703.949219 C 344.304688 702.949219 343.855469 701.9375 343.433594 700.917969 C 343.011719 699.898438 342.613281 698.867188 342.242188 697.828125 C 341.867188 696.785156 341.523438 695.738281 341.199219 694.679688 C 340.878906 693.625 340.585938 692.558594 340.316406 691.488281 C 340.050781 690.414062 339.808594 689.339844 339.589844 688.253906 C 339.375 687.171875 339.1875 686.082031 339.023438 684.988281 C 338.863281 683.898438 338.726562 682.800781 338.621094 681.703125 C 338.511719 680.601562 338.429688 679.5 338.375 678.398438 C 338.320312 677.292969 338.292969 676.1875 338.292969 675.085938 C 338.292969 673.980469 338.320312 672.875 338.375 671.773438 C 338.429688 670.667969 338.511719 669.566406 338.621094 668.46875 C 338.726562 667.367188 338.863281 666.273438 339.023438 665.179688 C 339.1875 664.085938 339.375 662.996094 339.589844 661.914062 C 339.808594 660.832031 340.050781 659.753906 340.316406 658.679688 C 340.585938 657.609375 340.878906 656.546875 341.199219 655.488281 C 341.523438 654.429688 341.867188 653.382812 342.242188 652.339844 C 342.613281 651.300781 343.011719 650.269531 343.433594 649.25 C 343.855469 648.230469 344.304688 647.21875 344.777344 646.222656 C 345.25 645.222656 345.746094 644.234375 346.265625 643.261719 C 346.785156 642.285156 347.332031 641.324219 347.898438 640.378906 C 348.464844 639.429688 349.058594 638.496094 349.671875 637.578125 C 350.285156 636.660156 350.921875 635.757812 351.578125 634.871094 C 352.238281 633.980469 352.917969 633.113281 353.617188 632.257812 C 354.320312 631.402344 355.039062 630.566406 355.78125 629.75 C 356.523438 628.929688 357.285156 628.128906 358.066406 627.347656 C 358.847656 626.566406 359.648438 625.804688 360.464844 625.0625 C 361.285156 624.320312 362.121094 623.601562 362.976562 622.898438 C 363.828125 622.199219 364.699219 621.519531 365.585938 620.859375 C 366.476562 620.203125 367.378906 619.566406 368.296875 618.953125 C 369.214844 618.339844 370.148438 617.75 371.097656 617.179688 C 372.042969 616.613281 373.003906 616.066406 373.980469 615.546875 C 374.953125 615.027344 375.941406 614.53125 376.9375 614.058594 C 377.9375 613.585938 378.945312 613.136719 379.96875 612.714844 C 380.988281 612.292969 382.019531 611.894531 383.058594 611.523438 C 384.097656 611.148438 385.148438 610.804688 386.207031 610.484375 C 387.261719 610.160156 388.328125 609.867188 389.398438 609.597656 C 390.46875 609.332031 391.546875 609.089844 392.632812 608.875 C 393.714844 608.65625 394.804688 608.46875 395.894531 608.304688 C 396.988281 608.144531 398.085938 608.007812 399.183594 607.902344 C 400.285156 607.792969 401.386719 607.710938 402.488281 607.65625 C 403.59375 607.601562 404.695312 607.574219 405.800781 607.574219 C 406.90625 607.574219 408.011719 607.601562 409.113281 607.65625 C 410.21875 607.710938 411.320312 607.792969 412.417969 607.902344 C 413.519531 608.007812 414.613281 608.144531 415.707031 608.304688 C 416.800781 608.46875 417.886719 608.65625 418.972656 608.875 C 420.054688 609.089844 421.132812 609.332031 422.203125 609.597656 C 423.277344 609.867188 424.339844 610.160156 425.398438 610.484375 C 426.457031 610.804688 427.503906 611.148438 428.542969 611.523438 C 429.585938 611.894531 430.613281 612.292969 431.636719 612.714844 C 432.65625 613.136719 433.667969 613.585938 434.664062 614.058594 C 435.664062 614.53125 436.648438 615.027344 437.625 615.546875 C 438.597656 616.066406 439.558594 616.613281 440.507812 617.179688 C 441.457031 617.75 442.386719 618.339844 443.308594 618.953125 C 444.226562 619.566406 445.128906 620.203125 446.015625 620.859375 C 446.902344 621.519531 447.773438 622.199219 448.628906 622.898438 C 449.480469 623.601562 450.320312 624.320312 451.136719 625.0625 C 451.957031 625.804688 452.753906 626.566406 453.535156 627.347656 C 454.316406 628.128906 455.078125 628.929688 455.820312 629.75 C 456.5625 630.566406 457.285156 631.402344 457.984375 632.257812 C 458.6875 633.113281 459.367188 633.980469 460.023438 634.871094 C 460.683594 635.757812 461.320312 636.660156 461.933594 637.578125 C 462.546875 638.496094 463.136719 639.429688 463.703125 640.378906 C 464.273438 641.324219 464.816406 642.285156 465.339844 643.261719 C 465.859375 644.234375 466.355469 645.222656 466.828125 646.222656 C 467.300781 647.21875 467.746094 648.230469 468.171875 649.25 C 468.59375 650.269531 468.992188 651.300781 469.363281 652.339844 C 469.734375 653.382812 470.082031 654.429688 470.402344 655.488281 C 470.722656 656.546875 471.019531 657.609375 471.285156 658.679688 C 471.554688 659.753906 471.796875 660.832031 472.011719 661.914062 C 472.226562 662.996094 472.417969 664.085938 472.578125 665.179688 C 472.742188 666.273438 472.875 667.367188 472.984375 668.46875 C 473.09375 669.566406 473.175781 670.667969 473.226562 671.773438 C 473.28125 672.875 473.308594 673.980469 473.308594 675.085938 C 473.308594 676.1875 473.28125 677.292969 473.226562 678.398438 C 473.175781 679.5 473.09375 680.601562 472.984375 681.703125 C 472.875 682.800781 472.742188 683.898438 472.578125 684.988281 C 472.417969 686.082031 472.226562 687.171875 472.011719 688.253906 C 471.796875 689.339844 471.554688 690.414062 471.285156 691.488281 C 471.019531 692.558594 470.722656 693.625 470.402344 694.679688 C 470.082031 695.738281 469.734375 696.785156 469.363281 697.828125 C 468.992188 698.867188 468.59375 699.898438 468.171875 700.917969 C 467.746094 701.9375 467.300781 702.949219 466.828125 703.949219 C 466.355469 704.945312 465.859375 705.933594 465.339844 706.90625 C 464.816406 707.882812 464.273438 708.84375 463.703125 709.789062 C 463.136719 710.738281 462.546875 711.671875 461.933594 712.589844 C 461.320312 713.507812 460.683594 714.410156 460.023438 715.300781 C 459.367188 716.1875 458.6875 717.058594 457.984375 717.910156 C 457.285156 718.765625 456.5625 719.601562 455.820312 720.421875 C 455.078125 721.238281 454.316406 722.039062 453.535156 722.820312 C 452.753906 723.601562 451.957031 724.363281 451.136719 725.105469 C 450.320312 725.847656 449.480469 726.566406 448.628906 727.269531 C 447.773438 727.96875 446.902344 728.648438 446.015625 729.308594 C 445.128906 729.964844 444.226562 730.601562 443.308594 731.214844 C 442.386719 731.828125 441.457031 732.421875 440.507812 732.988281 C 439.558594 733.554688 438.597656 734.101562 437.625 734.621094 C 436.648438 735.140625 435.664062 735.640625 434.664062 736.109375 C 433.667969 736.582031 432.65625 737.03125 431.636719 737.453125 C 430.613281 737.875 429.585938 738.273438 428.542969 738.644531 C 427.503906 739.019531 426.457031 739.363281 425.398438 739.6875 C 424.339844 740.007812 423.277344 740.300781 422.203125 740.570312 C 421.132812 740.839844 420.054688 741.078125 418.972656 741.296875 C 417.886719 741.511719 416.800781 741.699219 415.707031 741.863281 C 414.613281 742.023438 413.519531 742.160156 412.417969 742.269531 C 411.320312 742.375 410.21875 742.457031 409.113281 742.511719 C 408.011719 742.566406 406.90625 742.59375 405.800781 742.59375 Z M 405.800781 742.59375 " fill-opacity="1" fill-rule="nonzero"/></g><g clip-path="url(#0da9efe558)"><path fill="#000000" d="M 979.617188 371.296875 L 941.070312 371.296875 C 940.15625 367.707031 939.097656 364.164062 937.890625 360.664062 C 936.683594 357.164062 935.335938 353.722656 933.847656 350.332031 C 932.355469 346.945312 930.726562 343.625 928.964844 340.371094 C 927.199219 337.117188 925.300781 333.941406 923.273438 330.84375 C 921.246094 327.746094 919.09375 324.738281 916.820312 321.816406 C 914.542969 318.898438 912.148438 316.078125 909.640625 313.355469 C 907.132812 310.632812 904.515625 308.019531 901.789062 305.515625 C 899.0625 303.011719 896.238281 300.621094 893.316406 298.351562 C 890.394531 296.078125 887.382812 293.929688 884.285156 291.90625 C 881.183594 289.882812 878.003906 287.992188 874.75 286.230469 C 871.492188 284.472656 868.167969 282.847656 864.777344 281.363281 C 861.386719 279.878906 857.941406 278.535156 854.441406 277.332031 C 850.9375 276.132812 847.394531 275.078125 843.804688 274.167969 C 840.214844 273.261719 836.597656 272.503906 832.945312 271.894531 C 829.292969 271.285156 825.621094 270.828125 821.933594 270.523438 C 818.246094 270.21875 814.550781 270.066406 810.847656 270.066406 C 807.144531 270.066406 803.449219 270.21875 799.761719 270.523438 C 796.070312 270.828125 792.402344 271.285156 788.75 271.894531 C 785.097656 272.503906 781.480469 273.261719 777.890625 274.167969 C 774.300781 275.078125 770.757812 276.132812 767.253906 277.332031 C 763.753906 278.535156 760.308594 279.878906 756.917969 281.363281 C 753.527344 282.847656 750.203125 284.472656 746.945312 286.230469 C 743.691406 287.992188 740.511719 289.882812 737.410156 291.90625 C 734.3125 293.929688 731.300781 296.078125 728.378906 298.351562 C 725.453125 300.621094 722.628906 303.011719 719.90625 305.515625 C 717.179688 308.019531 714.5625 310.632812 712.054688 313.355469 C 709.542969 316.078125 707.152344 318.898438 704.875 321.816406 C 702.601562 324.738281 700.449219 327.746094 698.421875 330.84375 C 696.394531 333.941406 694.496094 337.117188 692.730469 340.371094 C 690.96875 343.625 689.339844 346.945312 687.847656 350.332031 C 686.359375 353.722656 685.007812 357.164062 683.804688 360.664062 C 682.597656 364.164062 681.539062 367.707031 680.625 371.296875 L 34.511719 371.296875 C 33.40625 371.296875 32.300781 371.351562 31.203125 371.457031 C 30.101562 371.566406 29.007812 371.730469 27.925781 371.945312 C 26.839844 372.160156 25.769531 372.429688 24.710938 372.75 C 23.652344 373.070312 22.613281 373.441406 21.59375 373.867188 C 20.570312 374.289062 19.574219 374.761719 18.597656 375.28125 C 17.625 375.804688 16.675781 376.371094 15.757812 376.984375 C 14.839844 377.597656 13.953125 378.257812 13.097656 378.957031 C 12.242188 379.660156 11.425781 380.402344 10.640625 381.183594 C 9.859375 381.964844 9.121094 382.78125 8.417969 383.636719 C 7.714844 384.492188 7.058594 385.378906 6.445312 386.296875 C 5.832031 387.21875 5.261719 388.164062 4.742188 389.140625 C 4.222656 390.113281 3.75 391.113281 3.324219 392.132812 C 2.902344 393.15625 2.53125 394.195312 2.210938 395.253906 C 1.890625 396.308594 1.621094 397.382812 1.40625 398.464844 C 1.1875 399.550781 1.027344 400.640625 0.917969 401.742188 C 0.808594 402.84375 0.757812 403.945312 0.757812 405.050781 C 0.757812 406.15625 0.808594 407.257812 0.917969 408.359375 C 1.027344 409.460938 1.1875 410.550781 1.40625 411.636719 C 1.621094 412.71875 1.890625 413.789062 2.210938 414.847656 C 2.53125 415.90625 2.902344 416.945312 3.324219 417.96875 C 3.75 418.988281 4.222656 419.988281 4.742188 420.960938 C 5.261719 421.9375 5.832031 422.882812 6.445312 423.804688 C 7.058594 424.722656 7.714844 425.609375 8.417969 426.464844 C 9.121094 427.320312 9.859375 428.136719 10.640625 428.917969 C 11.425781 429.699219 12.242188 430.441406 13.097656 431.144531 C 13.953125 431.84375 14.839844 432.5 15.757812 433.117188 C 16.675781 433.730469 17.625 434.296875 18.597656 434.820312 C 19.574219 435.339844 20.570312 435.8125 21.59375 436.234375 C 22.613281 436.660156 23.652344 437.03125 24.710938 437.351562 C 25.769531 437.671875 26.839844 437.941406 27.925781 438.15625 C 29.007812 438.371094 30.101562 438.535156 31.203125 438.640625 C 32.300781 438.75 33.40625 438.804688 34.511719 438.804688 L 680.625 438.804688 C 681.539062 442.390625 682.597656 445.9375 683.804688 449.4375 C 685.007812 452.9375 686.359375 456.378906 687.847656 459.769531 C 689.339844 463.15625 690.96875 466.476562 692.730469 469.730469 C 694.496094 472.984375 696.394531 476.160156 698.421875 479.257812 C 700.449219 482.355469 702.601562 485.363281 704.875 488.285156 C 707.152344 491.203125 709.542969 494.023438 712.054688 496.746094 C 714.5625 499.464844 717.179688 502.078125 719.90625 504.585938 C 722.628906 507.089844 725.453125 509.480469 728.378906 511.75 C 731.300781 514.023438 734.3125 516.171875 737.410156 518.195312 C 740.511719 520.214844 743.691406 522.109375 746.945312 523.867188 C 750.203125 525.628906 753.527344 527.253906 756.917969 528.738281 C 760.308594 530.222656 763.753906 531.566406 767.253906 532.769531 C 770.757812 533.96875 774.300781 535.023438 777.890625 535.929688 C 781.480469 536.839844 785.097656 537.597656 788.75 538.207031 C 792.402344 538.816406 796.070312 539.273438 799.761719 539.578125 C 803.449219 539.882812 807.144531 540.035156 810.847656 540.035156 C 814.550781 540.035156 818.246094 539.882812 821.933594 539.578125 C 825.621094 539.273438 829.292969 538.816406 832.945312 538.207031 C 836.597656 537.597656 840.214844 536.839844 843.804688 535.929688 C 847.394531 535.023438 850.9375 533.96875 854.441406 532.769531 C 857.941406 531.566406 861.386719 530.222656 864.777344 528.738281 C 868.167969 527.253906 871.492188 525.628906 874.75 523.867188 C 878.003906 522.109375 881.183594 520.214844 884.285156 518.195312 C 887.382812 516.171875 890.394531 514.023438 893.316406 511.75 C 896.238281 509.480469 899.0625 507.089844 901.789062 504.585938 C 904.515625 502.078125 907.132812 499.464844 909.640625 496.746094 C 912.148438 494.023438 914.542969 491.203125 916.820312 488.285156 C 919.09375 485.363281 921.246094 482.355469 923.273438 479.257812 C 925.300781 476.160156 927.199219 472.984375 928.964844 469.730469 C 930.726562 466.476562 932.355469 463.15625 933.847656 459.769531 C 935.335938 456.378906 936.683594 452.9375 937.890625 449.4375 C 939.097656 445.9375 940.15625 442.390625 941.070312 438.804688 L 979.617188 438.804688 C 980.722656 438.804688 981.824219 438.75 982.925781 438.640625 C 984.023438 438.535156 985.117188 438.371094 986.203125 438.15625 C 987.285156 437.941406 988.355469 437.671875 989.414062 437.351562 C 990.472656 437.03125 991.511719 436.660156 992.535156 436.234375 C 993.554688 435.8125 994.554688 435.339844 995.527344 434.820312 C 996.503906 434.296875 997.449219 433.730469 998.367188 433.117188 C 999.289062 432.503906 1000.175781 431.84375 1001.03125 431.144531 C 1001.882812 430.441406 1002.703125 429.699219 1003.484375 428.917969 C 1004.265625 428.136719 1005.007812 427.320312 1005.707031 426.464844 C 1006.410156 425.609375 1007.066406 424.722656 1007.679688 423.804688 C 1008.296875 422.882812 1008.863281 421.9375 1009.382812 420.960938 C 1009.90625 419.988281 1010.378906 418.988281 1010.800781 417.96875 C 1011.222656 416.945312 1011.597656 415.90625 1011.917969 414.847656 C 1012.238281 413.789062 1012.507812 412.71875 1012.722656 411.636719 C 1012.9375 410.550781 1013.097656 409.460938 1013.207031 408.359375 C 1013.316406 407.257812 1013.371094 406.15625 1013.371094 405.050781 C 1013.371094 403.945312 1013.316406 402.84375 1013.207031 401.742188 C 1013.097656 400.640625 1012.9375 399.550781 1012.722656 398.464844 C 1012.507812 397.382812 1012.238281 396.308594 1011.917969 395.253906 C 1011.597656 394.195312 1011.222656 393.15625 1010.800781 392.132812 C 1010.378906 391.113281 1009.90625 390.113281 1009.382812 389.140625 C 1008.863281 388.164062 1008.296875 387.21875 1007.683594 386.296875 C 1007.066406 385.378906 1006.410156 384.492188 1005.707031 383.636719 C 1005.007812 382.78125 1004.265625 381.964844 1003.484375 381.183594 C 1002.703125 380.402344 1001.882812 379.660156 1001.03125 378.957031 C 1000.175781 378.257812 999.289062 377.597656 998.367188 376.984375 C 997.449219 376.371094 996.503906 375.804688 995.527344 375.28125 C 994.554688 374.761719 993.554688 374.289062 992.535156 373.867188 C 991.511719 373.441406 990.472656 373.070312 989.414062 372.75 C 988.355469 372.429688 987.285156 372.160156 986.203125 371.945312 C 985.117188 371.730469 984.023438 371.566406 982.925781 371.457031 C 981.824219 371.351562 980.722656 371.296875 979.617188 371.296875 Z M 810.847656 472.558594 C 809.742188 472.558594 808.636719 472.53125 807.535156 472.476562 C 806.429688 472.421875 805.328125 472.34375 804.230469 472.234375 C 803.132812 472.125 802.035156 471.992188 800.941406 471.828125 C 799.847656 471.667969 798.761719 471.476562 797.675781 471.261719 C 796.59375 471.046875 795.515625 470.804688 794.445312 470.535156 C 793.371094 470.265625 792.308594 469.972656 791.25 469.652344 C 790.195312 469.332031 789.144531 468.984375 788.105469 468.613281 C 787.066406 468.242188 786.035156 467.84375 785.011719 467.421875 C 783.992188 466.996094 782.984375 466.550781 781.984375 466.078125 C 780.984375 465.605469 780 465.109375 779.023438 464.585938 C 778.050781 464.066406 777.089844 463.523438 776.140625 462.953125 C 775.195312 462.386719 774.261719 461.796875 773.34375 461.183594 C 772.421875 460.566406 771.519531 459.933594 770.632812 459.273438 C 769.746094 458.617188 768.875 457.9375 768.019531 457.234375 C 767.167969 456.535156 766.332031 455.8125 765.511719 455.070312 C 764.695312 454.328125 763.894531 453.566406 763.113281 452.785156 C 762.332031 452.003906 761.570312 451.203125 760.828125 450.386719 C 760.085938 449.566406 759.363281 448.730469 758.664062 447.878906 C 757.960938 447.023438 757.28125 446.152344 756.625 445.265625 C 755.964844 444.378906 755.332031 443.476562 754.71875 442.554688 C 754.101562 441.636719 753.511719 440.703125 752.945312 439.757812 C 752.375 438.808594 751.832031 437.847656 751.3125 436.875 C 750.789062 435.898438 750.292969 434.914062 749.820312 433.914062 C 749.347656 432.914062 748.902344 431.90625 748.476562 430.886719 C 748.054688 429.863281 747.65625 428.832031 747.285156 427.792969 C 746.914062 426.753906 746.566406 425.703125 746.246094 424.648438 C 745.925781 423.589844 745.632812 422.527344 745.363281 421.453125 C 745.09375 420.382812 744.851562 419.304688 744.636719 418.222656 C 744.421875 417.136719 744.234375 416.050781 744.070312 414.957031 C 743.910156 413.863281 743.773438 412.765625 743.664062 411.667969 C 743.554688 410.566406 743.476562 409.464844 743.421875 408.363281 C 743.367188 407.257812 743.339844 406.15625 743.339844 405.050781 C 743.339844 403.945312 743.367188 402.839844 743.421875 401.738281 C 743.476562 400.632812 743.554688 399.53125 743.664062 398.433594 C 743.773438 397.335938 743.910156 396.238281 744.070312 395.144531 C 744.234375 394.050781 744.421875 392.964844 744.636719 391.878906 C 744.851562 390.796875 745.09375 389.71875 745.363281 388.648438 C 745.632812 387.574219 745.925781 386.511719 746.246094 385.453125 C 746.566406 384.398438 746.914062 383.347656 747.285156 382.308594 C 747.65625 381.265625 748.054688 380.238281 748.476562 379.214844 C 748.902344 378.195312 749.347656 377.1875 749.820312 376.1875 C 750.292969 375.1875 750.789062 374.203125 751.3125 373.226562 C 751.832031 372.253906 752.375 371.292969 752.945312 370.34375 C 753.511719 369.398438 754.101562 368.464844 754.71875 367.542969 C 755.332031 366.625 755.964844 365.722656 756.625 364.835938 C 757.28125 363.949219 757.960938 363.078125 758.664062 362.222656 C 759.363281 361.371094 760.085938 360.535156 760.828125 359.714844 C 761.570312 358.894531 762.332031 358.097656 763.113281 357.316406 C 763.894531 356.535156 764.695312 355.773438 765.511719 355.03125 C 766.332031 354.289062 767.167969 353.566406 768.019531 352.867188 C 768.875 352.164062 769.746094 351.484375 770.632812 350.828125 C 771.519531 350.167969 772.421875 349.53125 773.34375 348.917969 C 774.261719 348.304688 775.195312 347.714844 776.140625 347.148438 C 777.089844 346.578125 778.050781 346.035156 779.023438 345.511719 C 780 344.992188 780.984375 344.496094 781.984375 344.023438 C 782.984375 343.550781 783.992188 343.105469 785.011719 342.679688 C 786.035156 342.257812 787.066406 341.859375 788.105469 341.488281 C 789.144531 341.117188 790.195312 340.769531 791.25 340.449219 C 792.308594 340.128906 793.371094 339.832031 794.445312 339.566406 C 795.515625 339.296875 796.59375 339.054688 797.675781 338.839844 C 798.761719 338.625 799.847656 338.433594 800.941406 338.273438 C 802.035156 338.109375 803.132812 337.976562 804.230469 337.867188 C 805.328125 337.757812 806.429688 337.679688 807.535156 337.625 C 808.636719 337.570312 809.742188 337.542969 810.847656 337.542969 C 811.953125 337.542969 813.054688 337.570312 814.160156 337.625 C 815.261719 337.679688 816.363281 337.757812 817.464844 337.867188 C 818.5625 337.976562 819.660156 338.109375 820.753906 338.273438 C 821.847656 338.433594 822.933594 338.625 824.015625 338.839844 C 825.101562 339.054688 826.179688 339.296875 827.25 339.566406 C 828.320312 339.832031 829.386719 340.128906 830.445312 340.449219 C 831.5 340.769531 832.550781 341.117188 833.589844 341.488281 C 834.628906 341.859375 835.660156 342.257812 836.679688 342.679688 C 837.703125 343.105469 838.710938 343.550781 839.710938 344.023438 C 840.710938 344.496094 841.695312 344.992188 842.671875 345.511719 C 843.644531 346.035156 844.605469 346.578125 845.554688 347.148438 C 846.5 347.714844 847.433594 348.304688 848.351562 348.917969 C 849.269531 349.53125 850.175781 350.167969 851.0625 350.828125 C 851.949219 351.484375 852.820312 352.164062 853.675781 352.867188 C 854.527344 353.566406 855.363281 354.289062 856.183594 355.03125 C 857 355.773438 857.800781 356.535156 858.582031 357.316406 C 859.363281 358.097656 860.125 358.894531 860.867188 359.714844 C 861.609375 360.535156 862.332031 361.371094 863.03125 362.222656 C 863.730469 363.078125 864.410156 363.949219 865.070312 364.835938 C 865.726562 365.722656 866.363281 366.625 866.976562 367.542969 C 867.589844 368.464844 868.183594 369.398438 868.75 370.34375 C 869.320312 371.292969 869.863281 372.253906 870.382812 373.226562 C 870.90625 374.203125 871.402344 375.1875 871.875 376.1875 C 872.347656 377.1875 872.792969 378.195312 873.214844 379.214844 C 873.640625 380.238281 874.035156 381.265625 874.410156 382.308594 C 874.78125 383.347656 875.128906 384.398438 875.449219 385.453125 C 875.769531 386.511719 876.0625 387.574219 876.332031 388.648438 C 876.601562 389.71875 876.84375 390.796875 877.058594 391.878906 C 877.273438 392.964844 877.460938 394.050781 877.625 395.144531 C 877.785156 396.238281 877.921875 397.335938 878.03125 398.433594 C 878.136719 399.53125 878.21875 400.632812 878.273438 401.738281 C 878.328125 402.839844 878.355469 403.945312 878.355469 405.050781 C 878.355469 406.15625 878.328125 407.257812 878.273438 408.363281 C 878.21875 409.464844 878.136719 410.566406 878.03125 411.667969 C 877.921875 412.765625 877.785156 413.863281 877.625 414.957031 C 877.460938 416.050781 877.273438 417.136719 877.058594 418.222656 C 876.84375 419.304688 876.601562 420.382812 876.332031 421.453125 C 876.0625 422.527344 875.769531 423.589844 875.449219 424.648438 C 875.128906 425.703125 874.78125 426.753906 874.410156 427.792969 C 874.035156 428.832031 873.640625 429.863281 873.214844 430.886719 C 872.792969 431.90625 872.347656 432.914062 871.875 433.914062 C 871.402344 434.914062 870.90625 435.898438 870.382812 436.875 C 869.863281 437.847656 869.320312 438.808594 868.75 439.757812 C 868.183594 440.703125 867.589844 441.636719 866.976562 442.554688 C 866.363281 443.476562 865.726562 444.378906 865.070312 445.265625 C 864.410156 446.152344 863.730469 447.023438 863.03125 447.878906 C 862.332031 448.730469 861.609375 449.566406 860.867188 450.386719 C 860.125 451.207031 859.363281 452.003906 858.582031 452.785156 C 857.800781 453.566406 857 454.328125 856.183594 455.070312 C 855.363281 455.8125 854.527344 456.535156 853.671875 457.234375 C 852.820312 457.9375 851.949219 458.617188 851.0625 459.273438 C 850.175781 459.933594 849.269531 460.566406 848.351562 461.183594 C 847.433594 461.796875 846.5 462.386719 845.554688 462.953125 C 844.605469 463.523438 843.644531 464.066406 842.671875 464.585938 C 841.695312 465.109375 840.710938 465.605469 839.710938 466.078125 C 838.710938 466.550781 837.703125 466.996094 836.679688 467.421875 C 835.660156 467.84375 834.628906 468.242188 833.589844 468.613281 C 832.550781 468.984375 831.5 469.332031 830.445312 469.652344 C 829.386719 469.972656 828.320312 470.265625 827.25 470.535156 C 826.179688 470.804688 825.101562 471.046875 824.015625 471.261719 C 822.933594 471.476562 821.84375 471.667969 820.753906 471.828125 C 819.660156 471.992188 818.5625 472.125 817.464844 472.234375 C 816.363281 472.34375 815.261719 472.421875 814.160156 472.476562 C 813.054688 472.53125 811.953125 472.558594 810.847656 472.558594 Z M 810.847656 472.558594 " fill-opacity="1" fill-rule="nonzero"/></g></g></g></g></svg>