<svg xmlns="http://www.w3.org/2000/svg" xmlns:xlink="http://www.w3.org/1999/xlink" width="945" zoomAndPan="magnify" viewBox="0 0 1440 809.999993" height="756" preserveAspectRatio="xMidYMid meet" version="1.0"><defs><clipPath id="45264a0b4b"><path d="M 2 1 L 889.761719 1 L 889.761719 363 L 2 363 Z M 2 1 " clip-rule="nonzero"/></clipPath><clipPath id="f3a36803a3"><rect x="0" width="890" y="0" height="810"/></clipPath></defs><g transform="matrix(1, 0, 0, 1, 274, 0.000000000000039746)"><g clip-path="url(#f3a36803a3)"><path fill="#000000" d="M 763.308594 809.808594 L 553.414062 809.808594 C 535.019531 809.808594 520.054688 794.839844 520.054688 776.445312 L 520.054688 548.878906 C 520.054688 509.015625 487.621094 476.585938 447.757812 476.585938 L 444.191406 476.585938 C 404.328125 476.585938 371.898438 509.015625 371.898438 548.878906 L 371.898438 776.445312 C 371.898438 794.84375 356.929688 809.808594 338.535156 809.808594 L 128.644531 809.808594 C 107.570312 809.808594 90.421875 792.660156 90.421875 771.585938 L 90.421875 371.296875 C 90.421875 360.605469 99.09375 351.933594 109.789062 351.933594 C 120.480469 351.933594 129.152344 360.605469 129.152344 371.296875 L 129.152344 771.082031 L 333.175781 771.082031 L 333.175781 548.878906 C 333.175781 487.664062 382.976562 437.859375 444.195312 437.859375 L 447.761719 437.859375 C 508.980469 437.859375 558.785156 487.664062 558.785156 548.878906 L 558.785156 771.082031 L 762.804688 771.082031 L 762.804688 372.058594 C 762.804688 361.363281 771.476562 352.695312 782.167969 352.695312 C 792.863281 352.695312 801.535156 361.363281 801.535156 372.058594 L 801.535156 771.585938 C 801.535156 792.660156 784.386719 809.808594 763.3125 809.808594 Z M 763.308594 809.808594 " fill-opacity="1" fill-rule="nonzero"/><g clip-path="url(#45264a0b4b)"><path fill="#000000" d="M 869.726562 362.464844 C 865.644531 362.464844 861.527344 361.179688 858.023438 358.515625 L 445.898438 45.328125 L 33.933594 358.476562 C 25.417969 364.953125 13.273438 363.292969 6.796875 354.78125 C 0.324219 346.265625 1.984375 334.117188 10.496094 327.648438 L 434.179688 5.589844 C 441.105469 0.324219 450.691406 0.324219 457.617188 5.589844 L 881.457031 327.683594 C 889.972656 334.15625 891.628906 346.300781 885.160156 354.816406 C 881.351562 359.828125 875.570312 362.46875 869.726562 362.46875 Z M 869.726562 362.464844 " fill-opacity="1" fill-rule="nonzero"/></g></g></g></svg>