<svg xmlns="http://www.w3.org/2000/svg" xmlns:xlink="http://www.w3.org/1999/xlink" width="945" zoomAndPan="magnify"
    viewBox="0 0 1440 809.999993" height="756" preserveAspectRatio="xMidYMid meet" version="1.0">
    <defs>
        <clipPath id="d5a7fca48a">
            <path d="M 9 0 L 590 0 L 590 810 L 9 810 Z M 9 0 " clip-rule="nonzero" />
        </clipPath>
        <clipPath id="723d9bd8fc">
            <rect x="0" width="598" y="0" height="810" />
        </clipPath>
    </defs>
    <g transform="matrix(1, 0, 0, 1, 421, 0.000000000000039746)">
        <g clip-path="url(#723d9bd8fc)">
            <g clip-path="url(#d5a7fca48a)">
                <path fill="#000000"
                    d="M 299.203125 810.101562 C 297.710938 810.101562 296.234375 809.945312 294.777344 809.636719 C 293.316406 809.324219 291.90625 808.867188 290.542969 808.261719 C 289.179688 807.65625 287.894531 806.914062 286.6875 806.039062 C 285.480469 805.164062 284.375 804.171875 283.375 803.066406 C 272.15625 790.660156 9.109375 497.230469 9.109375 289.929688 C 9.113281 285.1875 9.230469 280.445312 9.464844 275.707031 C 9.699219 270.96875 10.050781 266.242188 10.515625 261.519531 C 10.984375 256.796875 11.566406 252.09375 12.261719 247.398438 C 12.960938 242.707031 13.773438 238.035156 14.703125 233.382812 C 15.628906 228.730469 16.671875 224.101562 17.824219 219.5 C 18.980469 214.898438 20.246094 210.328125 21.625 205.789062 C 23.003906 201.25 24.492188 196.75 26.09375 192.28125 C 27.695312 187.816406 29.402344 183.390625 31.222656 179.011719 C 33.039062 174.628906 34.960938 170.292969 36.992188 166.003906 C 39.023438 161.714844 41.15625 157.480469 43.398438 153.296875 C 45.636719 149.113281 47.976562 144.988281 50.417969 140.921875 C 52.855469 136.851562 55.398438 132.847656 58.035156 128.902344 C 60.671875 124.957031 63.40625 121.082031 66.234375 117.273438 C 69.0625 113.460938 71.980469 109.722656 74.992188 106.058594 C 78.007812 102.390625 81.105469 98.800781 84.292969 95.285156 C 87.484375 91.773438 90.753906 88.335938 94.113281 84.984375 C 97.46875 81.628906 100.90625 78.359375 104.421875 75.175781 C 107.941406 71.988281 111.535156 68.894531 115.203125 65.882812 C 118.875 62.875 122.613281 59.957031 126.425781 57.132812 C 130.242188 54.308594 134.121094 51.578125 138.066406 48.941406 C 142.015625 46.304688 146.023438 43.769531 150.09375 41.332031 C 154.167969 38.894531 158.296875 36.554688 162.480469 34.320312 C 166.667969 32.085938 170.90625 29.953125 175.199219 27.925781 C 179.488281 25.898438 183.828125 23.976562 188.210938 22.160156 C 192.597656 20.34375 197.023438 18.640625 201.496094 17.039062 C 205.964844 15.441406 210.46875 13.957031 215.011719 12.578125 C 219.554688 11.203125 224.128906 9.9375 228.730469 8.785156 C 233.335938 7.632812 237.964844 6.59375 242.621094 5.667969 C 247.277344 4.742188 251.953125 3.933594 256.648438 3.238281 C 261.34375 2.539062 266.050781 1.960938 270.773438 1.496094 C 275.5 1.03125 280.230469 0.683594 284.972656 0.449219 C 289.710938 0.214844 294.457031 0.101562 299.203125 0.101562 C 303.949219 0.101562 308.691406 0.214844 313.433594 0.449219 C 318.175781 0.683594 322.90625 1.03125 327.628906 1.496094 C 332.355469 1.960938 337.0625 2.539062 341.757812 3.238281 C 346.453125 3.933594 351.128906 4.742188 355.785156 5.667969 C 360.441406 6.59375 365.070312 7.632812 369.675781 8.785156 C 374.277344 9.9375 378.851562 11.203125 383.394531 12.578125 C 387.9375 13.957031 392.441406 15.441406 396.910156 17.039062 C 401.378906 18.640625 405.808594 20.34375 410.191406 22.160156 C 414.578125 23.976562 418.917969 25.898438 423.207031 27.925781 C 427.5 29.953125 431.738281 32.085938 435.925781 34.320312 C 440.109375 36.554688 444.238281 38.894531 448.3125 41.332031 C 452.382812 43.769531 456.390625 46.304688 460.339844 48.941406 C 464.285156 51.578125 468.164062 54.308594 471.976562 57.132812 C 475.789062 59.957031 479.53125 62.875 483.203125 65.882812 C 486.871094 68.894531 490.464844 71.988281 493.980469 75.175781 C 497.5 78.359375 500.9375 81.628906 504.292969 84.984375 C 507.652344 88.335938 510.921875 91.773438 514.113281 95.285156 C 517.300781 98.800781 520.398438 102.390625 523.410156 106.058594 C 526.421875 109.722656 529.34375 113.460938 532.171875 117.273438 C 535 121.082031 537.734375 124.957031 540.371094 128.902344 C 543.007812 132.847656 545.546875 136.851562 547.988281 140.921875 C 550.429688 144.988281 552.769531 149.113281 555.007812 153.296875 C 557.246094 157.480469 559.382812 161.714844 561.414062 166.003906 C 563.441406 170.292969 565.367188 174.628906 567.183594 179.011719 C 569.003906 183.390625 570.710938 187.816406 572.3125 192.28125 C 573.910156 196.75 575.402344 201.25 576.78125 205.789062 C 578.160156 210.328125 579.425781 214.898438 580.582031 219.5 C 581.734375 224.101562 582.777344 228.730469 583.703125 233.382812 C 584.632812 238.035156 585.445312 242.707031 586.140625 247.398438 C 586.839844 252.09375 587.421875 256.796875 587.890625 261.519531 C 588.355469 266.242188 588.707031 270.96875 588.941406 275.707031 C 589.175781 280.445312 589.292969 285.1875 589.296875 289.929688 C 589.296875 497.230469 326.25 790.660156 315.03125 803.066406 C 314.03125 804.171875 312.925781 805.164062 311.71875 806.039062 C 310.511719 806.914062 309.226562 807.65625 307.863281 808.261719 C 306.5 808.867188 305.089844 809.324219 303.628906 809.636719 C 302.171875 809.945312 300.695312 810.101562 299.203125 810.101562 Z M 299.203125 42.636719 C 295.15625 42.640625 291.109375 42.746094 287.066406 42.949219 C 283.023438 43.152344 278.988281 43.453125 274.960938 43.855469 C 270.929688 44.253906 266.914062 44.753906 262.910156 45.351562 C 258.90625 45.949219 254.921875 46.644531 250.953125 47.4375 C 246.984375 48.230469 243.035156 49.121094 239.109375 50.105469 C 235.183594 51.09375 231.285156 52.175781 227.410156 53.351562 C 223.539062 54.53125 219.695312 55.800781 215.886719 57.167969 C 212.074219 58.53125 208.300781 59.988281 204.5625 61.539062 C 200.820312 63.089844 197.125 64.730469 193.464844 66.464844 C 189.804688 68.195312 186.191406 70.015625 182.625 71.925781 C 179.054688 73.832031 175.535156 75.828125 172.0625 77.910156 C 168.589844 79.992188 165.171875 82.15625 161.808594 84.40625 C 158.441406 86.652344 155.132812 88.984375 151.882812 91.394531 C 148.632812 93.804688 145.441406 96.292969 142.3125 98.859375 C 139.183594 101.429688 136.121094 104.070312 133.121094 106.789062 C 130.121094 109.503906 127.191406 112.292969 124.328125 115.15625 C 121.46875 118.015625 118.675781 120.945312 115.957031 123.941406 C 113.238281 126.941406 110.59375 130.003906 108.027344 133.128906 C 105.457031 136.257812 102.96875 139.445312 100.554688 142.695312 C 98.144531 145.941406 95.8125 149.25 93.5625 152.613281 C 91.3125 155.976562 89.144531 159.390625 87.0625 162.859375 C 84.980469 166.332031 82.984375 169.847656 81.074219 173.417969 C 79.164062 176.984375 77.34375 180.59375 75.613281 184.25 C 73.878906 187.910156 72.238281 191.605469 70.683594 195.34375 C 69.132812 199.078125 67.675781 202.851562 66.308594 206.660156 C 64.941406 210.46875 63.671875 214.308594 62.492188 218.179688 C 61.3125 222.050781 60.230469 225.945312 59.246094 229.871094 C 58.257812 233.792969 57.367188 237.738281 56.574219 241.707031 C 55.78125 245.675781 55.085938 249.660156 54.488281 253.660156 C 53.890625 257.660156 53.390625 261.675781 52.988281 265.703125 C 52.589844 269.726562 52.285156 273.761719 52.082031 277.800781 C 51.878906 281.84375 51.777344 285.886719 51.769531 289.929688 C 51.769531 453.144531 242.335938 689.351562 299.203125 756.25 C 356.070312 689.351562 546.632812 453.144531 546.632812 289.929688 C 546.628906 285.886719 546.527344 281.84375 546.324219 277.800781 C 546.121094 273.761719 545.816406 269.726562 545.417969 265.703125 C 545.015625 261.675781 544.515625 257.660156 543.917969 253.660156 C 543.320312 249.660156 542.625 245.675781 541.832031 241.707031 C 541.039062 237.738281 540.148438 233.792969 539.160156 229.871094 C 538.175781 225.945312 537.089844 222.050781 535.914062 218.179688 C 534.734375 214.308594 533.464844 210.46875 532.097656 206.660156 C 530.730469 202.851562 529.273438 199.078125 527.71875 195.34375 C 526.167969 191.605469 524.527344 187.910156 522.792969 184.25 C 521.0625 180.59375 519.242188 176.984375 517.332031 173.417969 C 515.421875 169.847656 513.425781 166.332031 511.34375 162.859375 C 509.257812 159.390625 507.09375 155.976562 504.84375 152.613281 C 502.59375 149.25 500.261719 145.941406 497.851562 142.695312 C 495.4375 139.445312 492.949219 136.257812 490.378906 133.128906 C 487.808594 130.003906 485.167969 126.941406 482.449219 123.941406 C 479.730469 120.945312 476.9375 118.015625 474.078125 115.15625 C 471.214844 112.292969 468.28125 109.503906 465.285156 106.789062 C 462.285156 104.070312 459.21875 101.429688 456.089844 98.859375 C 452.964844 96.292969 449.773438 93.804688 446.523438 91.394531 C 443.269531 88.984375 439.964844 86.652344 436.597656 84.40625 C 433.234375 82.15625 429.816406 79.992188 426.34375 77.910156 C 422.871094 75.828125 419.351562 73.832031 415.78125 71.925781 C 412.214844 70.015625 408.597656 68.195312 404.941406 66.464844 C 401.28125 64.730469 397.582031 63.089844 393.84375 61.539062 C 390.105469 59.988281 386.332031 58.53125 382.519531 57.167969 C 378.710938 55.800781 374.867188 54.53125 370.996094 53.351562 C 367.121094 52.175781 363.222656 51.09375 359.296875 50.105469 C 355.371094 49.121094 351.421875 48.230469 347.453125 47.4375 C 343.484375 46.644531 339.496094 45.949219 335.492188 45.351562 C 331.488281 44.753906 327.472656 44.253906 323.445312 43.855469 C 319.417969 43.453125 315.382812 43.152344 311.339844 42.949219 C 307.296875 42.746094 303.25 42.640625 299.203125 42.636719 Z M 299.203125 407.183594 C 297.28125 407.183594 295.363281 407.136719 293.445312 407.042969 C 291.527344 406.945312 289.613281 406.804688 287.703125 406.617188 C 285.792969 406.429688 283.886719 406.195312 281.988281 405.914062 C 280.089844 405.632812 278.199219 405.304688 276.316406 404.929688 C 274.433594 404.554688 272.558594 404.136719 270.695312 403.667969 C 268.835938 403.203125 266.984375 402.691406 265.148438 402.132812 C 263.308594 401.578125 261.488281 400.976562 259.679688 400.328125 C 257.871094 399.683594 256.082031 398.992188 254.308594 398.257812 C 252.535156 397.523438 250.777344 396.746094 249.042969 395.925781 C 247.308594 395.105469 245.59375 394.242188 243.898438 393.335938 C 242.207031 392.433594 240.535156 391.488281 238.890625 390.5 C 237.242188 389.515625 235.621094 388.488281 234.023438 387.421875 C 232.429688 386.355469 230.859375 385.25 229.316406 384.109375 C 227.773438 382.964844 226.261719 381.785156 224.777344 380.566406 C 223.292969 379.351562 221.839844 378.097656 220.417969 376.808594 C 218.996094 375.519531 217.605469 374.195312 216.246094 372.839844 C 214.890625 371.484375 213.566406 370.09375 212.277344 368.671875 C 210.988281 367.25 209.734375 365.796875 208.515625 364.316406 C 207.296875 362.832031 206.117188 361.320312 204.972656 359.777344 C 203.828125 358.234375 202.722656 356.667969 201.65625 355.074219 C 200.589844 353.476562 199.5625 351.855469 198.578125 350.210938 C 197.589844 348.5625 196.644531 346.894531 195.738281 345.203125 C 194.832031 343.511719 193.96875 341.796875 193.148438 340.0625 C 192.328125 338.328125 191.550781 336.574219 190.816406 334.800781 C 190.082031 333.027344 189.390625 331.238281 188.742188 329.433594 C 188.097656 327.625 187.496094 325.804688 186.9375 323.96875 C 186.378906 322.132812 185.867188 320.28125 185.402344 318.421875 C 184.933594 316.558594 184.515625 314.6875 184.140625 312.804688 C 183.765625 310.921875 183.4375 309.035156 183.15625 307.136719 C 182.875 305.238281 182.640625 303.332031 182.449219 301.421875 C 182.261719 299.515625 182.121094 297.601562 182.027344 295.683594 C 181.933594 293.769531 181.886719 291.851562 181.886719 289.929688 C 181.886719 288.011719 181.933594 286.09375 182.027344 284.175781 C 182.121094 282.261719 182.261719 280.347656 182.449219 278.4375 C 182.640625 276.527344 182.875 274.625 183.15625 272.726562 C 183.4375 270.828125 183.765625 268.9375 184.140625 267.054688 C 184.515625 265.175781 184.933594 263.300781 185.402344 261.441406 C 185.867188 259.578125 186.378906 257.730469 186.9375 255.894531 C 187.496094 254.058594 188.097656 252.238281 188.742188 250.429688 C 189.390625 248.625 190.082031 246.832031 190.816406 245.0625 C 191.550781 243.289062 192.328125 241.535156 193.148438 239.800781 C 193.96875 238.066406 194.832031 236.351562 195.738281 234.660156 C 196.644531 232.964844 197.589844 231.296875 198.578125 229.652344 C 199.5625 228.003906 200.589844 226.386719 201.65625 224.789062 C 202.722656 223.195312 203.828125 221.625 204.972656 220.085938 C 206.117188 218.542969 207.296875 217.03125 208.515625 215.546875 C 209.734375 214.0625 210.988281 212.613281 212.277344 211.191406 C 213.566406 209.769531 214.890625 208.378906 216.246094 207.023438 C 217.605469 205.664062 218.996094 204.34375 220.417969 203.054688 C 221.839844 201.765625 223.292969 200.511719 224.777344 199.292969 C 226.261719 198.078125 227.773438 196.898438 229.316406 195.753906 C 230.859375 194.609375 232.429688 193.507812 234.023438 192.441406 C 235.621094 191.375 237.242188 190.347656 238.890625 189.359375 C 240.535156 188.375 242.207031 187.429688 243.898438 186.523438 C 245.59375 185.621094 247.308594 184.757812 249.042969 183.9375 C 250.777344 183.117188 252.535156 182.339844 254.308594 181.605469 C 256.082031 180.871094 257.871094 180.179688 259.679688 179.535156 C 261.488281 178.886719 263.308594 178.285156 265.148438 177.726562 C 266.984375 177.171875 268.835938 176.660156 270.695312 176.195312 C 272.558594 175.726562 274.433594 175.308594 276.316406 174.933594 C 278.199219 174.558594 280.089844 174.230469 281.988281 173.949219 C 283.886719 173.667969 285.792969 173.433594 287.703125 173.242188 C 289.613281 173.054688 291.527344 172.914062 293.445312 172.820312 C 295.363281 172.726562 297.28125 172.679688 299.203125 172.679688 C 301.121094 172.679688 303.042969 172.726562 304.960938 172.820312 C 306.878906 172.914062 308.792969 173.054688 310.703125 173.242188 C 312.613281 173.433594 314.519531 173.667969 316.417969 173.949219 C 318.316406 174.230469 320.207031 174.558594 322.089844 174.933594 C 323.972656 175.308594 325.847656 175.726562 327.707031 176.195312 C 329.570312 176.660156 331.421875 177.171875 333.257812 177.726562 C 335.09375 178.285156 336.917969 178.886719 338.726562 179.535156 C 340.535156 180.179688 342.324219 180.871094 344.097656 181.605469 C 345.871094 182.339844 347.625 183.117188 349.363281 183.9375 C 351.097656 184.757812 352.8125 185.621094 354.503906 186.523438 C 356.199219 187.429688 357.867188 188.375 359.515625 189.359375 C 361.164062 190.347656 362.785156 191.375 364.378906 192.441406 C 365.976562 193.507812 367.546875 194.609375 369.089844 195.753906 C 370.628906 196.898438 372.144531 198.078125 373.628906 199.292969 C 375.113281 200.511719 376.566406 201.765625 377.988281 203.054688 C 379.410156 204.34375 380.800781 205.664062 382.160156 207.023438 C 383.515625 208.378906 384.839844 209.769531 386.128906 211.191406 C 387.417969 212.613281 388.671875 214.0625 389.890625 215.546875 C 391.109375 217.03125 392.289062 218.542969 393.433594 220.085938 C 394.578125 221.625 395.679688 223.195312 396.75 224.789062 C 397.816406 226.386719 398.839844 228.003906 399.828125 229.652344 C 400.816406 231.296875 401.761719 232.964844 402.667969 234.660156 C 403.570312 236.351562 404.433594 238.066406 405.257812 239.800781 C 406.078125 241.535156 406.855469 243.289062 407.589844 245.0625 C 408.324219 246.832031 409.015625 248.625 409.660156 250.429688 C 410.308594 252.238281 410.910156 254.058594 411.46875 255.894531 C 412.027344 257.730469 412.539062 259.578125 413.003906 261.441406 C 413.46875 263.300781 413.890625 265.175781 414.265625 267.054688 C 414.640625 268.9375 414.96875 270.828125 415.25 272.726562 C 415.53125 274.625 415.765625 276.527344 415.953125 278.4375 C 416.144531 280.347656 416.285156 282.261719 416.378906 284.175781 C 416.472656 286.09375 416.519531 288.011719 416.519531 289.929688 C 416.515625 291.847656 416.46875 293.765625 416.371094 295.683594 C 416.277344 297.597656 416.132812 299.511719 415.941406 301.417969 C 415.753906 303.328125 415.515625 305.230469 415.234375 307.128906 C 414.949219 309.027344 414.621094 310.914062 414.246094 312.796875 C 413.867188 314.679688 413.445312 316.546875 412.980469 318.410156 C 412.511719 320.269531 411.996094 322.117188 411.4375 323.953125 C 410.882812 325.789062 410.277344 327.609375 409.628906 329.414062 C 408.980469 331.21875 408.289062 333.007812 407.554688 334.78125 C 406.820312 336.554688 406.042969 338.304688 405.21875 340.039062 C 404.398438 341.773438 403.535156 343.484375 402.628906 345.175781 C 401.722656 346.867188 400.777344 348.539062 399.789062 350.183594 C 398.804688 351.828125 397.777344 353.449219 396.707031 355.042969 C 395.640625 356.636719 394.535156 358.203125 393.394531 359.746094 C 392.25 361.285156 391.070312 362.796875 389.851562 364.28125 C 388.632812 365.761719 387.378906 367.214844 386.089844 368.636719 C 384.800781 370.058594 383.476562 371.445312 382.121094 372.804688 C 380.765625 374.160156 379.375 375.480469 377.953125 376.769531 C 376.53125 378.058594 375.078125 379.3125 373.59375 380.527344 C 372.109375 381.746094 370.597656 382.925781 369.054688 384.070312 C 367.515625 385.210938 365.945312 386.316406 364.351562 387.382812 C 362.753906 388.449219 361.132812 389.476562 359.488281 390.460938 C 357.84375 391.449219 356.171875 392.394531 354.480469 393.300781 C 352.789062 394.203125 351.074219 395.066406 349.339844 395.890625 C 347.605469 396.710938 345.851562 397.488281 344.078125 398.222656 C 342.304688 398.957031 340.515625 399.648438 338.707031 400.296875 C 336.902344 400.945312 335.082031 401.546875 333.242188 402.105469 C 331.40625 402.664062 329.558594 403.175781 327.695312 403.644531 C 325.835938 404.109375 323.964844 404.53125 322.082031 404.910156 C 320.199219 405.285156 318.308594 405.613281 316.410156 405.898438 C 314.511719 406.179688 312.609375 406.417969 310.699219 406.605469 C 308.789062 406.796875 306.875 406.9375 304.957031 407.035156 C 303.039062 407.132812 301.121094 407.179688 299.203125 407.183594 Z M 299.203125 215.316406 C 297.980469 215.316406 296.761719 215.347656 295.539062 215.40625 C 294.320312 215.464844 293.101562 215.554688 291.886719 215.675781 C 290.667969 215.796875 289.457031 215.945312 288.25 216.125 C 287.039062 216.304688 285.835938 216.511719 284.636719 216.75 C 283.441406 216.988281 282.25 217.253906 281.0625 217.550781 C 279.878906 217.847656 278.699219 218.175781 277.53125 218.53125 C 276.363281 218.882812 275.203125 219.265625 274.050781 219.679688 C 272.902344 220.089844 271.761719 220.527344 270.632812 220.996094 C 269.503906 221.464844 268.386719 221.957031 267.285156 222.480469 C 266.179688 223.003906 265.085938 223.550781 264.011719 224.125 C 262.933594 224.703125 261.871094 225.304688 260.820312 225.933594 C 259.773438 226.558594 258.742188 227.210938 257.726562 227.890625 C 256.710938 228.570312 255.710938 229.273438 254.730469 230 C 253.75 230.726562 252.785156 231.476562 251.839844 232.253906 C 250.898438 233.027344 249.972656 233.824219 249.066406 234.644531 C 248.160156 235.464844 247.277344 236.308594 246.414062 237.171875 C 245.550781 238.035156 244.707031 238.917969 243.886719 239.824219 C 243.066406 240.726562 242.269531 241.652344 241.492188 242.597656 C 240.71875 243.539062 239.964844 244.503906 239.238281 245.484375 C 238.511719 246.464844 237.808594 247.460938 237.128906 248.476562 C 236.449219 249.492188 235.796875 250.523438 235.167969 251.570312 C 234.539062 252.617188 233.9375 253.679688 233.363281 254.757812 C 232.785156 255.835938 232.238281 256.925781 231.714844 258.027344 C 231.191406 259.132812 230.695312 260.25 230.230469 261.378906 C 229.761719 262.503906 229.324219 263.644531 228.910156 264.792969 C 228.5 265.945312 228.117188 267.101562 227.761719 268.273438 C 227.40625 269.441406 227.082031 270.617188 226.785156 271.800781 C 226.488281 272.984375 226.21875 274.175781 225.980469 275.375 C 225.742188 276.570312 225.535156 277.773438 225.355469 278.984375 C 225.175781 280.191406 225.027344 281.402344 224.90625 282.617188 C 224.785156 283.832031 224.695312 285.050781 224.636719 286.269531 C 224.578125 287.488281 224.546875 288.710938 224.546875 289.929688 C 224.546875 291.152344 224.578125 292.371094 224.636719 293.59375 C 224.695312 294.8125 224.785156 296.027344 224.90625 297.246094 C 225.027344 298.460938 225.175781 299.671875 225.355469 300.878906 C 225.535156 302.085938 225.742188 303.289062 225.980469 304.488281 C 226.21875 305.683594 226.488281 306.875 226.785156 308.0625 C 227.082031 309.246094 227.40625 310.421875 227.761719 311.589844 C 228.117188 312.757812 228.5 313.917969 228.910156 315.066406 C 229.324219 316.21875 229.761719 317.355469 230.230469 318.484375 C 230.695312 319.613281 231.191406 320.730469 231.714844 321.832031 C 232.238281 322.9375 232.785156 324.027344 233.363281 325.105469 C 233.9375 326.179688 234.539062 327.242188 235.167969 328.289062 C 235.796875 329.339844 236.449219 330.371094 237.128906 331.382812 C 237.808594 332.398438 238.511719 333.398438 239.238281 334.378906 C 239.964844 335.359375 240.71875 336.320312 241.492188 337.265625 C 242.269531 338.210938 243.066406 339.132812 243.886719 340.039062 C 244.707031 340.945312 245.550781 341.828125 246.414062 342.691406 C 247.277344 343.554688 248.160156 344.398438 249.066406 345.214844 C 249.972656 346.035156 250.898438 346.835938 251.839844 347.609375 C 252.785156 348.382812 253.75 349.132812 254.730469 349.863281 C 255.710938 350.589844 256.710938 351.292969 257.726562 351.972656 C 258.742188 352.648438 259.773438 353.300781 260.820312 353.929688 C 261.871094 354.558594 262.933594 355.160156 264.011719 355.734375 C 265.085938 356.3125 266.179688 356.859375 267.28125 357.382812 C 268.386719 357.902344 269.503906 358.398438 270.632812 358.867188 C 271.761719 359.332031 272.902344 359.773438 274.050781 360.183594 C 275.203125 360.59375 276.363281 360.976562 277.53125 361.332031 C 278.699219 361.6875 279.878906 362.011719 281.0625 362.308594 C 282.25 362.605469 283.441406 362.875 284.636719 363.113281 C 285.835938 363.351562 287.039062 363.558594 288.25 363.738281 C 289.457031 363.917969 290.667969 364.066406 291.886719 364.1875 C 293.101562 364.304688 294.320312 364.394531 295.539062 364.457031 C 296.761719 364.515625 297.980469 364.546875 299.203125 364.546875 C 300.425781 364.546875 301.644531 364.515625 302.867188 364.457031 C 304.085938 364.394531 305.304688 364.304688 306.519531 364.1875 C 307.738281 364.066406 308.949219 363.917969 310.15625 363.738281 C 311.367188 363.558594 312.570312 363.351562 313.765625 363.113281 C 314.964844 362.875 316.15625 362.605469 317.34375 362.308594 C 318.527344 362.011719 319.707031 361.6875 320.875 361.332031 C 322.042969 360.976562 323.203125 360.59375 324.355469 360.183594 C 325.503906 359.773438 326.644531 359.332031 327.773438 358.867188 C 328.902344 358.398438 330.019531 357.902344 331.121094 357.382812 C 332.226562 356.859375 333.316406 356.3125 334.394531 355.734375 C 335.472656 355.160156 336.535156 354.558594 337.582031 353.929688 C 338.632812 353.300781 339.664062 352.648438 340.679688 351.96875 C 341.695312 351.292969 342.695312 350.589844 343.675781 349.863281 C 344.65625 349.132812 345.621094 348.382812 346.5625 347.609375 C 347.507812 346.835938 348.433594 346.035156 349.339844 345.214844 C 350.242188 344.398438 351.128906 343.554688 351.992188 342.691406 C 352.855469 341.828125 353.699219 340.945312 354.519531 340.039062 C 355.339844 339.132812 356.136719 338.210938 356.914062 337.265625 C 357.6875 336.320312 358.4375 335.359375 359.167969 334.378906 C 359.894531 333.398438 360.597656 332.398438 361.277344 331.382812 C 361.957031 330.371094 362.609375 329.335938 363.238281 328.289062 C 363.867188 327.242188 364.46875 326.179688 365.042969 325.105469 C 365.621094 324.027344 366.167969 322.9375 366.691406 321.832031 C 367.214844 320.730469 367.707031 319.613281 368.175781 318.484375 C 368.644531 317.355469 369.082031 316.21875 369.496094 315.066406 C 369.90625 313.917969 370.289062 312.757812 370.644531 311.589844 C 371 310.421875 371.324219 309.246094 371.621094 308.0625 C 371.917969 306.875 372.1875 305.683594 372.425781 304.488281 C 372.664062 303.289062 372.871094 302.085938 373.050781 300.878906 C 373.230469 299.671875 373.378906 298.460938 373.5 297.246094 C 373.621094 296.027344 373.710938 294.8125 373.769531 293.59375 C 373.828125 292.371094 373.859375 291.152344 373.859375 289.929688 C 373.859375 288.710938 373.828125 287.492188 373.765625 286.269531 C 373.703125 285.050781 373.613281 283.835938 373.492188 282.621094 C 373.371094 281.40625 373.21875 280.195312 373.039062 278.988281 C 372.859375 277.78125 372.648438 276.578125 372.410156 275.378906 C 372.171875 274.183594 371.902344 272.992188 371.605469 271.808594 C 371.308594 270.625 370.980469 269.449219 370.625 268.28125 C 370.269531 267.113281 369.886719 265.953125 369.472656 264.804688 C 369.0625 263.65625 368.621094 262.519531 368.152344 261.390625 C 367.683594 260.261719 367.191406 259.148438 366.667969 258.042969 C 366.144531 256.941406 365.59375 255.851562 365.019531 254.773438 C 364.441406 253.699219 363.839844 252.636719 363.210938 251.589844 C 362.582031 250.542969 361.929688 249.511719 361.25 248.496094 C 360.570312 247.484375 359.867188 246.484375 359.140625 245.503906 C 358.414062 244.523438 357.660156 243.5625 356.886719 242.617188 C 356.113281 241.675781 355.3125 240.75 354.492188 239.847656 C 353.671875 238.941406 352.832031 238.058594 351.96875 237.195312 C 351.105469 236.332031 350.21875 235.492188 349.316406 234.671875 C 348.410156 233.851562 347.484375 233.054688 346.542969 232.277344 C 345.597656 231.503906 344.636719 230.753906 343.652344 230.027344 C 342.671875 229.296875 341.675781 228.597656 340.660156 227.917969 C 339.644531 227.238281 338.613281 226.585938 337.566406 225.957031 C 336.519531 225.328125 335.457031 224.726562 334.378906 224.152344 C 333.300781 223.574219 332.210938 223.027344 331.105469 222.503906 C 330.003906 221.980469 328.886719 221.488281 327.757812 221.019531 C 326.632812 220.550781 325.492188 220.109375 324.34375 219.699219 C 323.191406 219.289062 322.035156 218.902344 320.863281 218.546875 C 319.695312 218.191406 318.519531 217.867188 317.335938 217.570312 C 316.152344 217.273438 314.960938 217.003906 313.761719 216.765625 C 312.5625 216.523438 311.359375 216.316406 310.152344 216.136719 C 308.945312 215.953125 307.734375 215.804688 306.519531 215.683594 C 305.300781 215.5625 304.085938 215.472656 302.863281 215.410156 C 301.644531 215.347656 300.425781 215.316406 299.203125 215.316406 Z M 299.203125 215.316406 "
                    fill-opacity="1" fill-rule="nonzero" />
            </g>
        </g>
    </g>
</svg>