<svg xmlns="http://www.w3.org/2000/svg" xmlns:xlink="http://www.w3.org/1999/xlink" width="945" zoomAndPan="magnify" viewBox="0 0 1440 809.999993" height="756" preserveAspectRatio="xMidYMid meet" version="1.0"><defs><clipPath id="ce858edeea"><path d="M 0.683594 0 L 869.722656 0 L 869.722656 810 L 0.683594 810 Z M 0.683594 0 " clip-rule="nonzero"/></clipPath><clipPath id="0b837a9150"><rect x="0" width="870" y="0" height="810"/></clipPath></defs><g transform="matrix(1, 0, 0, 1, 285, 0.000000000000039746)"><g clip-path="url(#0b837a9150)"><g clip-path="url(#ce858edeea)"><path fill="#000000" d="M 858.726562 211.074219 L 827.851562 180.207031 C 820.886719 173.246094 811.625 169.40625 801.769531 169.40625 C 791.917969 169.40625 782.65625 173.246094 775.691406 180.207031 L 736.984375 218.902344 C 736.984375 218.902344 736.980469 218.90625 736.976562 218.90625 C 736.976562 218.910156 736.972656 218.910156 736.972656 218.914062 L 717.792969 238.085938 L 717.792969 74.960938 C 717.792969 33.609375 684.140625 -0.03125 642.773438 -0.03125 L 74.742188 -0.03125 C 34.011719 -0.03125 0.871094 33.097656 0.871094 73.816406 L 0.871094 136.6875 C 0.871094 142.75 5.789062 147.660156 11.851562 147.660156 L 90.214844 147.660156 C 96.277344 147.660156 101.195312 142.75 101.195312 136.6875 C 101.195312 130.628906 96.277344 125.714844 90.214844 125.714844 L 22.828125 125.714844 L 22.828125 73.816406 C 22.828125 45.199219 46.117188 21.917969 74.742188 21.917969 C 103.371094 21.917969 126.660156 45.199219 126.660156 73.816406 L 126.660156 736.210938 C 126.660156 776.925781 159.796875 810.054688 200.53125 810.054688 C 241.265625 810.054688 274.402344 776.925781 274.402344 736.210938 L 274.402344 684.3125 L 758.730469 684.3125 L 758.730469 736.210938 C 758.730469 764.824219 735.4375 788.105469 706.816406 788.105469 L 291.496094 788.105469 C 285.429688 788.105469 280.515625 793.019531 280.515625 799.082031 C 280.515625 805.140625 285.429688 810.054688 291.496094 810.054688 L 706.816406 810.054688 C 747.546875 810.054688 780.683594 776.925781 780.683594 736.210938 L 780.683594 673.339844 C 780.683594 667.277344 775.769531 662.363281 769.707031 662.363281 L 717.792969 662.363281 L 717.792969 462.933594 C 717.792969 456.875 712.878906 451.960938 706.816406 451.960938 C 700.75 451.960938 695.835938 456.875 695.835938 462.933594 L 695.835938 662.363281 L 263.421875 662.363281 C 257.359375 662.363281 252.445312 667.277344 252.445312 673.339844 L 252.445312 736.210938 C 252.445312 764.824219 229.15625 788.105469 200.53125 788.105469 C 171.90625 788.105469 148.617188 764.824219 148.617188 736.210938 L 148.617188 73.816406 C 148.617188 53.601562 140.445312 35.265625 127.238281 21.917969 L 642.773438 21.917969 C 672.03125 21.917969 695.835938 45.714844 695.835938 74.960938 L 695.835938 260.035156 L 492.417969 463.382812 C 492.363281 463.4375 492.308594 463.492188 492.257812 463.546875 C 492.253906 463.546875 492.253906 463.546875 492.253906 463.546875 C 492.25 463.550781 492.25 463.554688 492.246094 463.554688 C 490.570312 465.296875 489.578125 467.453125 489.277344 469.6875 L 477.660156 548.695312 C 477.15625 552.128906 478.304688 555.597656 480.757812 558.050781 C 482.832031 560.125 485.628906 561.265625 488.519531 561.265625 C 489.050781 561.265625 489.585938 561.226562 490.117188 561.148438 L 569.148438 549.535156 C 571.445312 549.222656 573.664062 548.183594 575.429688 546.417969 C 575.4375 546.410156 575.449219 546.402344 575.453125 546.394531 L 858.726562 263.21875 C 865.695312 256.253906 869.53125 246.996094 869.53125 237.144531 C 869.53125 227.296875 865.695312 218.039062 858.726562 211.074219 Z M 501.527344 537.289062 L 507.839844 494.371094 L 544.457031 530.976562 Z M 567.667969 523.140625 L 515.679688 471.167969 L 744.738281 242.1875 L 763.644531 261.085938 L 568.582031 455.15625 C 564.285156 459.429688 564.269531 466.378906 568.542969 470.675781 C 570.691406 472.828125 573.507812 473.910156 576.324219 473.910156 C 579.125 473.910156 581.925781 472.84375 584.070312 470.714844 L 779.167969 276.605469 L 796.726562 294.160156 Z M 843.203125 247.699219 L 812.253906 278.640625 L 760.265625 226.667969 L 791.214844 195.726562 C 794.035156 192.910156 797.78125 191.355469 801.769531 191.355469 C 805.757812 191.355469 809.507812 192.910156 812.328125 195.726562 L 843.203125 226.59375 C 846.023438 229.410156 847.578125 233.160156 847.578125 237.144531 C 847.578125 241.132812 846.023438 244.878906 843.203125 247.699219 Z M 843.203125 247.699219 " fill-opacity="1" fill-rule="nonzero"/></g><path fill="#000000" d="M 335.355469 137.226562 C 335.355469 120.382812 321.648438 106.679688 304.796875 106.679688 L 247.375 106.679688 C 230.527344 106.679688 216.820312 120.382812 216.820312 137.226562 L 216.820312 194.628906 C 216.820312 211.472656 230.527344 225.175781 247.375 225.175781 L 304.796875 225.175781 C 321.648438 225.175781 335.355469 211.472656 335.355469 194.628906 Z M 313.398438 194.628906 C 313.398438 199.371094 309.539062 203.226562 304.796875 203.226562 L 247.375 203.226562 C 242.632812 203.226562 238.777344 199.371094 238.777344 194.628906 L 238.777344 137.226562 C 238.777344 132.488281 242.632812 128.628906 247.375 128.628906 L 304.796875 128.628906 C 309.539062 128.628906 313.398438 132.488281 313.398438 137.226562 Z M 313.398438 194.628906 " fill-opacity="1" fill-rule="nonzero"/><path fill="#000000" d="M 390.78125 212.648438 L 545.824219 212.648438 C 551.886719 212.648438 556.800781 207.734375 556.800781 201.675781 C 556.800781 195.613281 551.886719 190.699219 545.824219 190.699219 L 390.78125 190.699219 C 384.714844 190.699219 379.800781 195.613281 379.800781 201.675781 C 379.800781 207.734375 384.714844 212.648438 390.78125 212.648438 Z M 390.78125 212.648438 " fill-opacity="1" fill-rule="nonzero"/><path fill="#000000" d="M 390.78125 147.660156 L 608.539062 147.660156 C 614.601562 147.660156 619.519531 142.75 619.519531 136.6875 C 619.519531 130.628906 614.601562 125.714844 608.539062 125.714844 L 390.78125 125.714844 C 384.714844 125.714844 379.800781 130.628906 379.800781 136.6875 C 379.800781 142.75 384.714844 147.660156 390.78125 147.660156 Z M 390.78125 147.660156 " fill-opacity="1" fill-rule="nonzero"/><path fill="#000000" d="M 335.355469 326.128906 C 335.355469 309.285156 321.648438 295.582031 304.796875 295.582031 L 247.375 295.582031 C 230.527344 295.582031 216.820312 309.285156 216.820312 326.128906 L 216.820312 383.53125 C 216.820312 400.375 230.527344 414.074219 247.375 414.074219 L 304.796875 414.074219 C 321.648438 414.074219 335.355469 400.375 335.355469 383.53125 Z M 313.398438 383.53125 C 313.398438 388.269531 309.539062 392.128906 304.796875 392.128906 L 247.375 392.128906 C 242.632812 392.128906 238.777344 388.269531 238.777344 383.53125 L 238.777344 326.128906 C 238.777344 321.390625 242.632812 317.53125 247.375 317.53125 L 304.796875 317.53125 C 309.539062 317.53125 313.398438 321.390625 313.398438 326.128906 Z M 313.398438 383.53125 " fill-opacity="1" fill-rule="nonzero"/><path fill="#000000" d="M 556.800781 390.578125 C 556.800781 384.515625 551.886719 379.601562 545.824219 379.601562 L 390.78125 379.601562 C 384.714844 379.601562 379.800781 384.515625 379.800781 390.578125 C 379.800781 396.636719 384.714844 401.550781 390.78125 401.550781 L 545.824219 401.550781 C 551.886719 401.550781 556.800781 396.636719 556.800781 390.578125 Z M 556.800781 390.578125 " fill-opacity="1" fill-rule="nonzero"/><path fill="#000000" d="M 390.78125 336.5625 L 608.539062 336.5625 C 614.601562 336.5625 619.519531 331.648438 619.519531 325.589844 C 619.519531 319.527344 614.601562 314.613281 608.539062 314.613281 L 390.78125 314.613281 C 384.714844 314.613281 379.800781 319.527344 379.800781 325.589844 C 379.800781 331.648438 384.714844 336.5625 390.78125 336.5625 Z M 390.78125 336.5625 " fill-opacity="1" fill-rule="nonzero"/><path fill="#000000" d="M 304.796875 484.484375 L 247.375 484.484375 C 230.527344 484.484375 216.820312 498.1875 216.820312 515.03125 L 216.820312 572.433594 C 216.820312 589.277344 230.527344 602.980469 247.375 602.980469 L 304.796875 602.980469 C 321.648438 602.980469 335.355469 589.277344 335.355469 572.433594 L 335.355469 515.03125 C 335.355469 498.1875 321.648438 484.484375 304.796875 484.484375 Z M 313.398438 572.433594 C 313.398438 577.171875 309.539062 581.03125 304.796875 581.03125 L 247.375 581.03125 C 242.632812 581.03125 238.777344 577.171875 238.777344 572.433594 L 238.777344 515.03125 C 238.777344 510.289062 242.632812 506.433594 247.375 506.433594 L 304.796875 506.433594 C 309.539062 506.433594 313.398438 510.289062 313.398438 515.03125 Z M 313.398438 572.433594 " fill-opacity="1" fill-rule="nonzero"/><path fill="#000000" d="M 459.132812 568.503906 L 390.78125 568.503906 C 384.714844 568.503906 379.800781 573.417969 379.800781 579.480469 C 379.800781 585.539062 384.714844 590.453125 390.78125 590.453125 L 459.132812 590.453125 C 465.195312 590.453125 470.109375 585.539062 470.109375 579.480469 C 470.109375 573.417969 465.195312 568.503906 459.132812 568.503906 Z M 459.132812 568.503906 " fill-opacity="1" fill-rule="nonzero"/><path fill="#000000" d="M 459.132812 503.515625 L 390.78125 503.515625 C 384.714844 503.515625 379.800781 508.429688 379.800781 514.492188 C 379.800781 520.550781 384.714844 525.464844 390.78125 525.464844 L 459.132812 525.464844 C 465.195312 525.464844 470.109375 520.550781 470.109375 514.492188 C 470.109375 508.429688 465.195312 503.515625 459.132812 503.515625 Z M 459.132812 503.515625 " fill-opacity="1" fill-rule="nonzero"/></g></g></svg>