<svg xmlns="http://www.w3.org/2000/svg" xmlns:xlink="http://www.w3.org/1999/xlink" width="945" zoomAndPan="magnify" viewBox="0 0 1440 809.999993" height="756" preserveAspectRatio="xMidYMid meet" version="1.0"><defs><clipPath id="eda9eb662a"><path d="M 0.804688 0 L 796.976562 0 L 796.976562 810 L 0.804688 810 Z M 0.804688 0 " clip-rule="nonzero"/></clipPath><clipPath id="17bda508bf"><rect x="0" width="797" y="0" height="810"/></clipPath></defs><g transform="matrix(1, 0, 0, 1, 331, 0.000000000000039746)"><g clip-path="url(#17bda508bf)"><g clip-path="url(#eda9eb662a)"><path fill="#000000" d="M 794.421875 335.488281 C 785.660156 293.003906 758.898438 193.15625 756.058594 182.492188 L 756.058594 131.375 C 756.058594 93.714844 728.160156 63.109375 693.894531 63.109375 L 611.820312 63.109375 L 611.820312 44.378906 C 611.820312 42.929688 611.746094 41.484375 611.605469 40.042969 C 611.460938 38.601562 611.246094 37.171875 610.964844 35.75 C 610.679688 34.328125 610.328125 32.925781 609.90625 31.539062 C 609.484375 30.152344 608.996094 28.792969 608.441406 27.453125 C 607.886719 26.117188 607.269531 24.808594 606.585938 23.53125 C 605.902344 22.253906 605.160156 21.011719 604.355469 19.808594 C 603.550781 18.601562 602.6875 17.441406 601.769531 16.320312 C 600.847656 15.199219 599.878906 14.128906 598.851562 13.101562 C 597.828125 12.078125 596.757812 11.105469 595.636719 10.1875 C 594.519531 9.265625 593.355469 8.402344 592.152344 7.597656 C 590.949219 6.792969 589.707031 6.046875 588.429688 5.363281 C 587.152344 4.679688 585.84375 4.058594 584.507812 3.503906 C 583.167969 2.945312 581.808594 2.457031 580.421875 2.035156 C 579.035156 1.613281 577.632812 1.257812 576.210938 0.976562 C 574.789062 0.691406 573.359375 0.476562 571.917969 0.332031 C 570.472656 0.1875 569.027344 0.113281 567.578125 0.109375 L 230.929688 0.109375 C 229.480469 0.113281 228.035156 0.1875 226.59375 0.332031 C 225.152344 0.476562 223.71875 0.691406 222.296875 0.976562 C 220.878906 1.257812 219.472656 1.613281 218.089844 2.035156 C 216.703125 2.457031 215.339844 2.945312 214 3.503906 C 212.664062 4.058594 211.355469 4.679688 210.078125 5.363281 C 208.800781 6.046875 207.5625 6.792969 206.355469 7.597656 C 205.152344 8.402344 203.992188 9.265625 202.871094 10.1875 C 201.75 11.105469 200.679688 12.078125 199.65625 13.101562 C 198.632812 14.128906 197.660156 15.199219 196.742188 16.320312 C 195.820312 17.441406 194.960938 18.601562 194.15625 19.808594 C 193.351562 21.011719 192.605469 22.253906 191.921875 23.53125 C 191.238281 24.808594 190.621094 26.117188 190.066406 27.453125 C 189.511719 28.792969 189.023438 30.152344 188.601562 31.539062 C 188.179688 32.925781 187.828125 34.328125 187.542969 35.75 C 187.261719 37.171875 187.046875 38.601562 186.90625 40.042969 C 186.761719 41.484375 186.6875 42.929688 186.6875 44.378906 L 186.6875 63.109375 L 100.679688 63.109375 C 66.414062 63.109375 38.515625 93.714844 38.515625 131.375 L 38.515625 182.574219 C 36 192.75 12.605469 287.449219 3.117188 335.445312 C -7.996094 376.875 22.296875 421.792969 65.078125 425.804688 L 65.078125 730.25 C 64.128906 730.253906 63.179688 730.304688 62.238281 730.402344 C 61.292969 730.5 60.355469 730.640625 59.425781 730.828125 C 58.496094 731.015625 57.578125 731.25 56.671875 731.527344 C 55.765625 731.808594 54.871094 732.128906 53.996094 732.496094 C 53.121094 732.859375 52.265625 733.265625 51.429688 733.714844 C 50.59375 734.164062 49.78125 734.65625 48.996094 735.183594 C 48.207031 735.710938 47.445312 736.277344 46.714844 736.878906 C 45.980469 737.484375 45.28125 738.121094 44.609375 738.792969 C 43.941406 739.464844 43.304688 740.167969 42.703125 740.902344 C 42.101562 741.636719 41.539062 742.398438 41.011719 743.1875 C 40.484375 743.976562 40 744.789062 39.550781 745.625 C 39.105469 746.460938 38.699219 747.316406 38.335938 748.195312 C 37.972656 749.070312 37.652344 749.960938 37.378906 750.871094 C 37.101562 751.777344 36.871094 752.695312 36.6875 753.625 C 36.5 754.558594 36.359375 755.492188 36.265625 756.4375 C 36.171875 757.382812 36.125 758.328125 36.125 759.277344 L 36.125 780.925781 C 36.125 781.875 36.171875 782.824219 36.261719 783.769531 C 36.355469 784.71875 36.496094 785.65625 36.679688 786.589844 C 36.867188 787.523438 37.097656 788.445312 37.375 789.355469 C 37.648438 790.265625 37.96875 791.160156 38.332031 792.039062 C 38.695312 792.917969 39.101562 793.777344 39.550781 794.613281 C 40 795.453125 40.488281 796.269531 41.015625 797.058594 C 41.542969 797.851562 42.109375 798.613281 42.710938 799.351562 C 43.316406 800.085938 43.953125 800.789062 44.625 801.464844 C 45.296875 802.136719 46 802.773438 46.734375 803.378906 C 47.472656 803.980469 48.234375 804.546875 49.023438 805.078125 C 49.816406 805.605469 50.628906 806.097656 51.46875 806.546875 C 52.308594 806.996094 53.164062 807.402344 54.042969 807.765625 C 54.921875 808.132812 55.816406 808.453125 56.726562 808.730469 C 57.636719 809.007812 58.558594 809.238281 59.492188 809.425781 C 60.425781 809.613281 61.363281 809.753906 62.3125 809.847656 C 63.257812 809.941406 64.207031 809.988281 65.15625 809.992188 L 733.351562 809.992188 C 734.300781 809.988281 735.25 809.941406 736.199219 809.847656 C 737.144531 809.753906 738.085938 809.613281 739.015625 809.425781 C 739.949219 809.238281 740.871094 809.007812 741.78125 808.730469 C 742.691406 808.453125 743.585938 808.132812 744.464844 807.765625 C 745.34375 807.402344 746.203125 806.996094 747.039062 806.546875 C 747.878906 806.097656 748.695312 805.605469 749.484375 805.078125 C 750.273438 804.546875 751.039062 803.980469 751.773438 803.378906 C 752.507812 802.773438 753.210938 802.136719 753.882812 801.464844 C 754.554688 800.789062 755.195312 800.085938 755.796875 799.351562 C 756.398438 798.613281 756.964844 797.851562 757.492188 797.058594 C 758.023438 796.269531 758.511719 795.453125 758.957031 794.613281 C 759.40625 793.777344 759.8125 792.917969 760.175781 792.039062 C 760.539062 791.160156 760.859375 790.265625 761.136719 789.355469 C 761.410156 788.445312 761.640625 787.523438 761.828125 786.589844 C 762.011719 785.65625 762.152344 784.71875 762.246094 783.769531 C 762.339844 782.824219 762.386719 781.875 762.386719 780.925781 L 762.386719 759.277344 C 762.382812 758.3125 762.335938 757.351562 762.238281 756.394531 C 762.140625 755.4375 761.996094 754.484375 761.804688 753.542969 C 761.617188 752.597656 761.378906 751.664062 761.09375 750.746094 C 760.808594 749.824219 760.480469 748.921875 760.105469 748.035156 C 759.734375 747.144531 759.316406 746.277344 758.855469 745.433594 C 758.394531 744.585938 757.894531 743.765625 757.355469 742.96875 C 756.8125 742.171875 756.230469 741.40625 755.613281 740.664062 C 754.996094 739.925781 754.34375 739.222656 753.65625 738.546875 C 752.96875 737.871094 752.246094 737.234375 751.496094 736.632812 C 750.742188 736.03125 749.964844 735.464844 749.15625 734.941406 C 748.347656 734.417969 747.515625 733.933594 746.660156 733.492188 C 745.804688 733.046875 744.929688 732.648438 744.035156 732.292969 C 743.136719 731.941406 742.226562 731.628906 741.300781 731.363281 C 740.375 731.101562 739.4375 730.882812 738.492188 730.710938 C 737.542969 730.539062 736.589844 730.414062 735.628906 730.339844 C 734.667969 730.261719 733.707031 730.230469 732.742188 730.25 L 732.742188 425.5625 C 775.96875 421.957031 806.179688 379.714844 794.421875 335.488281 Z M 611.820312 78.714844 L 693.894531 78.714844 C 719.5625 78.714844 740.40625 102.347656 740.40625 131.375 L 740.40625 175.722656 L 611.820312 175.722656 Z M 202.300781 44.378906 C 202.300781 43.441406 202.347656 42.503906 202.4375 41.570312 C 202.53125 40.640625 202.667969 39.710938 202.851562 38.792969 C 203.03125 37.871094 203.261719 36.964844 203.53125 36.066406 C 203.804688 35.167969 204.121094 34.285156 204.476562 33.421875 C 204.835938 32.554688 205.238281 31.707031 205.679688 30.878906 C 206.121094 30.050781 206.601562 29.25 207.125 28.46875 C 207.644531 27.6875 208.203125 26.9375 208.796875 26.210938 C 209.390625 25.484375 210.019531 24.789062 210.683594 24.128906 C 211.34375 23.464844 212.039062 22.832031 212.765625 22.238281 C 213.488281 21.644531 214.242188 21.085938 215.019531 20.5625 C 215.800781 20.039062 216.601562 19.558594 217.429688 19.117188 C 218.257812 18.671875 219.105469 18.269531 219.96875 17.910156 C 220.835938 17.550781 221.71875 17.234375 222.617188 16.960938 C 223.511719 16.6875 224.421875 16.460938 225.339844 16.277344 C 226.261719 16.089844 227.1875 15.953125 228.121094 15.859375 C 229.054688 15.765625 229.992188 15.71875 230.929688 15.71875 L 567.578125 15.71875 C 568.519531 15.71875 569.453125 15.765625 570.386719 15.859375 C 571.320312 15.953125 572.246094 16.089844 573.167969 16.277344 C 574.085938 16.460938 574.996094 16.6875 575.894531 16.960938 C 576.789062 17.234375 577.671875 17.550781 578.539062 17.910156 C 579.40625 18.269531 580.25 18.671875 581.078125 19.117188 C 581.90625 19.558594 582.707031 20.039062 583.488281 20.5625 C 584.269531 21.085938 585.019531 21.644531 585.746094 22.238281 C 586.46875 22.832031 587.164062 23.464844 587.824219 24.128906 C 588.488281 24.789062 589.117188 25.484375 589.710938 26.210938 C 590.308594 26.9375 590.863281 27.6875 591.386719 28.46875 C 591.90625 29.25 592.386719 30.050781 592.828125 30.878906 C 593.269531 31.707031 593.671875 32.554688 594.03125 33.421875 C 594.390625 34.285156 594.703125 35.167969 594.976562 36.066406 C 595.25 36.964844 595.476562 37.871094 595.660156 38.792969 C 595.839844 39.710938 595.980469 40.640625 596.070312 41.570312 C 596.164062 42.503906 596.207031 43.441406 596.207031 44.378906 L 596.207031 267.625 L 530.636719 267.625 L 530.800781 229.761719 C 531.085938 217.804688 545.519531 211.925781 551.117188 201.910156 C 589.394531 151.359375 567.660156 50.257812 496.980469 47.988281 C 418.191406 50.703125 401.566406 172.644531 455.621094 216.382812 C 459.757812 219.953125 462.109375 224.816406 462.109375 229.640625 L 462.027344 267.625 L 347.917969 267.625 L 348.402344 208.683594 C 348.445312 200.332031 353.066406 192.589844 360.324219 188.089844 C 384.292969 172.5625 398.566406 147.792969 398.566406 121.886719 L 399.09375 73.363281 C 399.539062 58.242188 384.292969 45.878906 369.53125 49.648438 C 358.621094 52.164062 350.675781 62.582031 350.675781 74.335938 L 350.351562 102.347656 C 350.351562 105.429688 348.160156 108.269531 345.644531 108.632812 C 341.386719 108.875 339.28125 106.402344 339.035156 102.957031 L 339.320312 72.878906 C 339.320312 66.632812 337.007812 60.59375 332.386719 55.527344 C 317.667969 40.285156 290.457031 51.636719 290.902344 73.242188 L 290.699219 101.578125 C 290.984375 109.363281 279.875 110.660156 279.46875 102.46875 L 279.671875 72.554688 C 278.859375 39.554688 231.984375 40.648438 231.253906 73.527344 L 230.96875 120.1875 C 230.035156 147.183594 245.8125 173.171875 268.882812 187.84375 C 270.5625 188.949219 272.078125 190.246094 273.429688 191.730469 C 274.785156 193.214844 275.929688 194.847656 276.875 196.621094 C 277.816406 198.394531 278.523438 200.257812 278.996094 202.210938 C 279.472656 204.164062 279.695312 206.144531 279.671875 208.15625 L 279.304688 267.625 L 202.300781 267.625 Z M 465.839844 204.585938 C 449.210938 190.195312 439.277344 165.996094 439.277344 139.847656 C 439.238281 103.363281 460.445312 64.890625 497.265625 63.632812 C 561.253906 67.445312 571.066406 170.777344 527.394531 204.75 C 519.648438 211.398438 515.1875 220.519531 515.1875 229.722656 L 515.027344 267.625 L 477.640625 267.625 L 477.71875 229.640625 C 477.71875 220.277344 473.382812 211.15625 465.839844 204.585938 Z M 277.441406 174.792969 C 258.867188 163.035156 246.417969 142.96875 246.460938 121.484375 L 246.417969 121.484375 C 246.417969 121.199219 246.460938 120.914062 246.460938 120.632812 L 246.863281 73.6875 C 246.894531 72.152344 247.230469 70.6875 247.871094 69.289062 C 248.511719 67.894531 249.40625 66.683594 250.554688 65.660156 C 255.21875 61.082031 264.300781 64.851562 264.058594 72.308594 L 263.855469 102.308594 C 264.261719 130.605469 305.90625 130.605469 306.3125 101.78125 L 306.515625 73.445312 C 306.597656 70.039062 307.976562 67.160156 310.328125 65.703125 C 317.707031 61.6875 323.222656 65.660156 323.707031 72.796875 L 323.382812 102.875 C 323.222656 115.566406 335.023438 126.023438 347.835938 124.117188 C 358.175781 122.496094 366.003906 113.132812 366.003906 102.429688 L 366.285156 74.457031 C 366.082031 62.257812 382.953125 61.242188 383.480469 73.242188 L 382.953125 121.808594 C 382.953125 142.480469 371.316406 162.347656 351.609375 175.195312 C 350.183594 176.070312 348.820312 177.027344 347.519531 178.074219 C 346.21875 179.117188 344.988281 180.242188 343.832031 181.441406 C 342.671875 182.644531 341.59375 183.914062 340.597656 185.25 C 339.601562 186.589844 338.691406 187.984375 337.871094 189.4375 C 337.050781 190.894531 336.328125 192.394531 335.699219 193.9375 C 335.070312 195.484375 334.539062 197.0625 334.113281 198.675781 C 333.683594 200.289062 333.359375 201.921875 333.136719 203.574219 C 332.917969 205.230469 332.800781 206.890625 332.792969 208.558594 L 332.304688 267.625 L 294.917969 267.625 L 295.28125 208.277344 C 295.304688 206.625 295.21875 204.980469 295.03125 203.339844 C 294.847656 201.699219 294.558594 200.074219 294.167969 198.46875 C 293.777344 196.867188 293.289062 195.292969 292.699219 193.75 C 292.113281 192.207031 291.429688 190.707031 290.652344 189.25 C 289.875 187.792969 289.011719 186.386719 288.058594 185.039062 C 287.105469 183.691406 286.074219 182.40625 284.957031 181.1875 C 283.84375 179.96875 282.65625 178.824219 281.398438 177.753906 C 280.140625 176.683594 278.824219 175.695312 277.441406 174.792969 Z M 54.128906 131.375 C 54.128906 102.347656 75.011719 78.714844 100.679688 78.714844 L 186.6875 78.714844 L 186.6875 175.722656 L 54.128906 175.722656 Z M 733.351562 745.859375 C 734.230469 745.859375 735.101562 745.949219 735.964844 746.121094 C 736.828125 746.296875 737.667969 746.550781 738.480469 746.890625 C 739.292969 747.230469 740.066406 747.644531 740.796875 748.132812 C 741.53125 748.621094 742.207031 749.179688 742.828125 749.800781 C 743.453125 750.421875 744.007812 751.101562 744.5 751.832031 C 744.988281 752.5625 745.402344 753.335938 745.742188 754.148438 C 746.078125 754.960938 746.335938 755.796875 746.507812 756.660156 C 746.683594 757.523438 746.769531 758.394531 746.773438 759.277344 L 746.773438 780.925781 C 746.773438 781.804688 746.6875 782.679688 746.515625 783.546875 C 746.34375 784.410156 746.089844 785.25 745.753906 786.066406 C 745.414062 786.878906 745.003906 787.65625 744.511719 788.390625 C 744.023438 789.121094 743.46875 789.800781 742.84375 790.425781 C 742.222656 791.050781 741.542969 791.609375 740.8125 792.101562 C 740.078125 792.59375 739.304688 793.007812 738.492188 793.347656 C 737.675781 793.6875 736.835938 793.941406 735.972656 794.117188 C 735.105469 794.292969 734.234375 794.378906 733.351562 794.382812 L 65.15625 794.382812 C 64.277344 794.378906 63.402344 794.292969 62.539062 794.117188 C 61.671875 793.941406 60.832031 793.6875 60.019531 793.347656 C 59.203125 793.007812 58.429688 792.59375 57.699219 792.101562 C 56.964844 791.609375 56.289062 791.050781 55.664062 790.425781 C 55.042969 789.800781 54.484375 789.121094 53.996094 788.390625 C 53.507812 787.65625 53.09375 786.878906 52.757812 786.066406 C 52.417969 785.25 52.164062 784.410156 51.992188 783.546875 C 51.820312 782.679688 51.734375 781.804688 51.734375 780.925781 L 51.734375 759.277344 C 51.738281 758.394531 51.828125 757.523438 52 756.660156 C 52.175781 755.796875 52.429688 754.960938 52.769531 754.148438 C 53.105469 753.335938 53.519531 752.5625 54.011719 751.832031 C 54.5 751.101562 55.054688 750.421875 55.679688 749.800781 C 56.300781 749.179688 56.980469 748.621094 57.710938 748.132812 C 58.441406 747.644531 59.214844 747.230469 60.027344 746.890625 C 60.839844 746.550781 61.679688 746.296875 62.542969 746.121094 C 63.40625 745.949219 64.277344 745.859375 65.15625 745.859375 C 69.375 745.859375 121.238281 745.816406 126.917969 745.859375 Z M 602.453125 589.90625 L 602.453125 667.539062 L 543.898438 667.539062 C 543.386719 667.539062 542.882812 667.585938 542.378906 667.6875 C 541.878906 667.789062 541.390625 667.933594 540.917969 668.128906 C 540.445312 668.324219 539.996094 668.566406 539.574219 668.847656 C 539.148438 669.132812 538.753906 669.457031 538.394531 669.816406 C 538.03125 670.179688 537.707031 670.570312 537.425781 670.996094 C 537.140625 671.421875 536.902344 671.871094 536.707031 672.34375 C 536.507812 672.816406 536.363281 673.300781 536.261719 673.804688 C 536.164062 674.304688 536.113281 674.808594 536.113281 675.320312 L 536.113281 730.25 L 504.96875 730.25 L 504.96875 646.09375 L 550.347656 646.09375 C 550.859375 646.089844 551.367188 646.039062 551.871094 645.9375 C 552.371094 645.835938 552.859375 645.6875 553.335938 645.492188 C 553.808594 645.292969 554.257812 645.050781 554.683594 644.765625 C 555.109375 644.480469 555.503906 644.15625 555.867188 643.792969 C 556.226562 643.429688 556.550781 643.035156 556.835938 642.609375 C 557.121094 642.183594 557.359375 641.730469 557.558594 641.257812 C 557.753906 640.785156 557.902344 640.296875 558 639.792969 C 558.101562 639.289062 558.152344 638.78125 558.152344 638.269531 C 558.152344 637.757812 558.101562 637.25 558 636.746094 C 557.902344 636.242188 557.753906 635.753906 557.558594 635.28125 C 557.359375 634.804688 557.121094 634.355469 556.835938 633.929688 C 556.550781 633.503906 556.226562 633.109375 555.867188 632.746094 C 555.503906 632.382812 555.109375 632.058594 554.683594 631.769531 C 554.257812 631.484375 553.808594 631.242188 553.335938 631.046875 C 552.859375 630.847656 552.371094 630.699219 551.871094 630.597656 C 551.367188 630.496094 550.859375 630.445312 550.347656 630.445312 L 443.941406 630.445312 C 443.429688 630.445312 442.921875 630.496094 442.417969 630.597656 C 441.914062 630.699219 441.425781 630.851562 440.953125 631.046875 C 440.480469 631.242188 440.03125 631.484375 439.601562 631.769531 C 439.175781 632.058594 438.785156 632.382812 438.421875 632.746094 C 438.058594 633.109375 437.734375 633.503906 437.449219 633.929688 C 437.167969 634.355469 436.925781 634.804688 436.730469 635.28125 C 436.535156 635.753906 436.386719 636.242188 436.285156 636.746094 C 436.1875 637.25 436.136719 637.757812 436.136719 638.269531 C 436.136719 638.78125 436.1875 639.289062 436.285156 639.792969 C 436.386719 640.296875 436.535156 640.785156 436.730469 641.257812 C 436.925781 641.730469 437.167969 642.183594 437.449219 642.609375 C 437.734375 643.035156 438.058594 643.429688 438.421875 643.792969 C 438.785156 644.15625 439.175781 644.480469 439.601562 644.765625 C 440.03125 645.050781 440.480469 645.292969 440.953125 645.492188 C 441.425781 645.6875 441.914062 645.835938 442.417969 645.9375 C 442.921875 646.039062 443.429688 646.089844 443.941406 646.09375 L 489.316406 646.09375 L 489.316406 730.25 L 462.917969 730.25 L 462.917969 675.320312 C 462.917969 674.808594 462.863281 674.300781 462.761719 673.800781 C 462.660156 673.300781 462.507812 672.8125 462.3125 672.339844 C 462.113281 671.867188 461.871094 671.417969 461.585938 670.992188 C 461.300781 670.570312 460.976562 670.175781 460.613281 669.816406 C 460.25 669.453125 459.855469 669.132812 459.429688 668.847656 C 459 668.5625 458.550781 668.324219 458.078125 668.128906 C 457.605469 667.933594 457.117188 667.785156 456.613281 667.6875 C 456.113281 667.585938 455.605469 667.539062 455.09375 667.539062 L 396.578125 667.539062 L 396.578125 589.90625 C 396.617188 589.371094 396.601562 588.835938 396.527344 588.304688 C 396.457031 587.769531 396.332031 587.25 396.152344 586.742188 C 395.976562 586.238281 395.746094 585.753906 395.46875 585.292969 C 395.191406 584.835938 394.867188 584.40625 394.5 584.015625 C 394.136719 583.621094 393.734375 583.269531 393.292969 582.957031 C 392.855469 582.648438 392.390625 582.386719 391.898438 582.171875 C 391.402344 581.957031 390.894531 581.792969 390.367188 581.683594 C 389.839844 581.574219 389.308594 581.519531 388.773438 581.519531 C 388.234375 581.519531 387.703125 581.574219 387.175781 581.683594 C 386.648438 581.792969 386.140625 581.957031 385.648438 582.171875 C 385.15625 582.386719 384.6875 582.648438 384.25 582.957031 C 383.8125 583.269531 383.410156 583.621094 383.042969 584.015625 C 382.675781 584.40625 382.355469 584.835938 382.074219 585.292969 C 381.796875 585.753906 381.570312 586.238281 381.390625 586.742188 C 381.210938 587.25 381.085938 587.769531 381.015625 588.304688 C 380.945312 588.835938 380.925781 589.371094 380.964844 589.90625 L 380.964844 730.25 L 354.121094 730.25 L 354.121094 539.3125 L 643.695312 539.3125 L 643.695312 730.25 L 618.066406 730.25 L 618.066406 589.90625 C 618.023438 579.691406 602.492188 579.691406 602.453125 589.90625 Z M 602.453125 683.144531 L 602.453125 730.25 L 551.726562 730.25 L 551.726562 683.144531 Z M 447.265625 683.144531 L 447.265625 730.25 L 396.578125 730.25 L 396.578125 683.144531 Z M 346.296875 523.707031 L 332.0625 523.707031 C 328.414062 523.707031 325.492188 521.476562 325.492188 518.722656 L 325.492188 476.5625 C 325.492188 473.804688 328.492188 471.453125 332.0625 471.453125 L 665.671875 471.453125 C 669.320312 471.453125 672.324219 473.761719 672.324219 476.5625 L 672.324219 518.722656 C 672.324219 521.476562 669.320312 523.707031 665.671875 523.707031 Z M 659.304688 539.3125 L 665.671875 539.3125 C 678.160156 539.3125 687.933594 530.273438 687.933594 518.722656 L 687.933594 476.5625 C 687.933594 465.128906 677.957031 455.84375 665.671875 455.84375 L 332.0625 455.84375 C 319.816406 455.84375 309.878906 465.128906 309.878906 476.5625 L 309.878906 518.722656 C 309.878906 530.070312 319.816406 539.3125 332.0625 539.3125 L 338.507812 539.3125 L 338.507812 730.25 L 281.332031 730.25 L 281.332031 541.949219 C 282.507812 497.601562 245.242188 454.871094 200.230469 455.84375 C 155.503906 455.84375 119.089844 494.480469 119.089844 541.949219 L 119.089844 730.25 L 80.6875 730.25 L 80.6875 426.171875 C 105.058594 423.699219 127.523438 408.617188 138.636719 386.726562 C 165.074219 439.183594 242.363281 439.226562 269.046875 387.011719 C 295.605469 439.144531 372.613281 439.144531 399.214844 387.050781 C 425.773438 439.144531 502.78125 439.101562 529.382812 387.050781 C 555.941406 439.226562 633.027344 439.183594 659.628906 387.011719 C 670.617188 408.699219 693.246094 422.765625 717.089844 425.605469 L 717.089844 730.25 L 659.304688 730.25 Z M 265.722656 541.949219 L 265.722656 730.25 L 134.742188 730.25 L 134.742188 541.949219 C 133.933594 481.304688 204.855469 447.25 246.378906 491.84375 C 249.476562 495.234375 252.238281 498.882812 254.65625 502.789062 C 257.074219 506.695312 259.109375 510.792969 260.765625 515.078125 C 262.417969 519.363281 263.664062 523.765625 264.496094 528.28125 C 265.328125 532.800781 265.738281 537.355469 265.722656 541.949219 Z M 667.414062 353.566406 C 667.171875 343.554688 652.289062 343.351562 651.804688 353.363281 C 650.425781 392.566406 621.105469 410.402344 594.425781 410.402344 C 567.742188 410.402344 538.503906 392.523438 537.167969 353.363281 C 536.761719 343.472656 521.960938 343.472656 521.554688 353.363281 C 518.066406 429.65625 410.488281 429.699219 407 353.363281 C 406.964844 352.875 406.882812 352.394531 406.757812 351.921875 C 406.632812 351.445312 406.464844 350.988281 406.25 350.546875 C 406.039062 350.105469 405.789062 349.6875 405.5 349.292969 C 405.207031 348.898438 404.882812 348.53125 404.523438 348.199219 C 404.164062 347.863281 403.777344 347.566406 403.363281 347.304688 C 402.949219 347.046875 402.515625 346.824219 402.058594 346.644531 C 401.601562 346.464844 401.132812 346.332031 400.652344 346.238281 C 400.167969 346.148438 399.683594 346.101562 399.195312 346.101562 C 398.703125 346.101562 398.21875 346.148438 397.734375 346.238281 C 397.253906 346.332031 396.785156 346.464844 396.328125 346.644531 C 395.871094 346.824219 395.4375 347.046875 395.023438 347.304688 C 394.609375 347.566406 394.222656 347.863281 393.863281 348.199219 C 393.503906 348.53125 393.179688 348.898438 392.886719 349.292969 C 392.597656 349.6875 392.347656 350.105469 392.136719 350.546875 C 391.921875 350.988281 391.753906 351.445312 391.628906 351.921875 C 391.503906 352.394531 391.421875 352.875 391.386719 353.363281 C 390.089844 392.523438 360.773438 410.359375 334.089844 410.359375 C 307.40625 410.359375 278.171875 392.523438 276.871094 353.363281 C 276.589844 343.511719 261.542969 343.472656 261.261719 353.363281 C 257.734375 429.65625 149.421875 429.820312 146.582031 353.363281 C 146.339844 343.230469 131.050781 343.511719 130.972656 353.648438 C 131.296875 407.605469 61.46875 431.359375 28.703125 388.875 C 17.835938 374.847656 14.023438 356.730469 18.363281 338.8125 C 26.960938 295.394531 46.871094 213.910156 52.425781 191.332031 L 186.6875 191.332031 L 186.6875 267.585938 L 154.003906 267.585938 C 143.949219 267.707031 143.542969 283.03125 154.003906 283.230469 L 647.382812 283.230469 C 657.441406 283.191406 657.722656 267.664062 647.382812 267.585938 L 611.820312 267.585938 L 611.820312 191.332031 L 742.230469 191.332031 C 748.394531 214.398438 771.226562 300.378906 779.132812 338.730469 C 782.335938 353.363281 781.769531 365.890625 777.511719 375.945312 C 755.574219 430.101562 667.820312 418.347656 667.414062 353.566406 Z M 183.445312 592.339844 C 143.257812 593.394531 143.257812 652.253906 183.445312 653.269531 C 223.628906 652.253906 223.628906 593.394531 183.445312 592.339844 Z M 183.445312 637.660156 C 163.9375 637.335938 163.9375 608.3125 183.445312 607.988281 C 202.988281 608.3125 202.988281 637.335938 183.445312 637.660156 Z M 183.445312 637.660156 " fill-opacity="1" fill-rule="nonzero"/></g></g></g></svg>