<svg xmlns="http://www.w3.org/2000/svg" xmlns:xlink="http://www.w3.org/1999/xlink" width="945" zoomAndPan="magnify" viewBox="0 0 1440 809.999993" height="756" preserveAspectRatio="xMidYMid meet" version="1.0"><defs><clipPath id="75324ae799"><path d="M 0.148438 0 L 782 0 L 782 810 L 0.148438 810 Z M 0.148438 0 " clip-rule="nonzero"/></clipPath><clipPath id="3a93e6762d"><rect x="0" width="787" y="0" height="810"/></clipPath></defs><g transform="matrix(1, 0, 0, 1, 327, 0.000000000000039746)"><g clip-path="url(#3a93e6762d)"><g clip-path="url(#75324ae799)"><path fill="#000000" d="M 769.417969 745.125 L 575.414062 558.664062 C 633.039062 496.988281 664.613281 417 664.613281 332.148438 C 664.613281 247.292969 630.039062 160.039062 567.371094 97.285156 C 504.644531 34.53125 421.269531 0 332.613281 0 C 243.953125 0 160.578125 34.53125 97.851562 97.285156 C 35.125 160.039062 0.613281 243.449219 0.613281 332.148438 C 0.613281 420.84375 35.125 504.257812 97.851562 567.011719 C 160.578125 629.765625 243.953125 664.296875 332.613281 664.296875 C 399.480469 664.296875 463.289062 644.65625 517.550781 608.085938 L 716.953125 799.710938 C 724.039062 806.5 733.339844 810.28125 743.1875 810.28125 C 753.03125 810.28125 763.414062 806.019531 770.496094 798.632812 C 784.964844 783.558594 784.484375 759.539062 769.417969 745.066406 Z M 478.472656 550.195312 C 436.757812 578.179688 386.636719 594.515625 332.613281 594.515625 C 187.769531 594.515625 70.421875 477.054688 70.421875 332.207031 C 70.421875 187.363281 187.769531 69.839844 332.613281 69.839844 C 477.453125 69.839844 594.804688 187.300781 594.804688 332.148438 C 594.804688 403.96875 565.929688 469.066406 519.171875 516.445312 C 506.804688 528.996094 493.121094 540.347656 478.414062 550.195312 Z M 478.472656 550.195312 " fill-opacity="1" fill-rule="nonzero"/></g></g></g></svg>