<svg xmlns="http://www.w3.org/2000/svg" xmlns:xlink="http://www.w3.org/1999/xlink" width="125" zoomAndPan="magnify" viewBox="0 0 93.75 52.499999" height="70" preserveAspectRatio="xMidYMid meet" version="1.0"><defs><clipPath id="3d51ad0d51"><path d="M 0.320312 0 L 92.859375 0 L 92.859375 51.839844 L 0.320312 51.839844 Z M 0.320312 0 " clip-rule="nonzero"/></clipPath><clipPath id="25396d557f"><path d="M 25.578125 0 L 67.457031 0 C 74.15625 0 80.582031 2.660156 85.316406 7.398438 C 90.054688 12.136719 92.714844 18.558594 92.714844 25.257812 L 92.714844 26.582031 C 92.714844 33.28125 90.054688 39.703125 85.316406 44.441406 C 80.582031 49.179688 74.15625 51.839844 67.457031 51.839844 L 25.578125 51.839844 C 18.878906 51.839844 12.453125 49.179688 7.714844 44.441406 C 2.980469 39.703125 0.320312 33.28125 0.320312 26.582031 L 0.320312 25.257812 C 0.320312 18.558594 2.980469 12.136719 7.714844 7.398438 C 12.453125 2.660156 18.878906 0 25.578125 0 Z M 25.578125 0 " clip-rule="nonzero"/></clipPath><clipPath id="575c272f49"><path d="M 0.320312 0 L 92.796875 0 L 92.796875 51.839844 L 0.320312 51.839844 Z M 0.320312 0 " clip-rule="nonzero"/></clipPath><clipPath id="233ada466d"><path d="M 25.578125 0 L 67.457031 0 C 74.15625 0 80.582031 2.660156 85.316406 7.398438 C 90.054688 12.136719 92.714844 18.558594 92.714844 25.257812 L 92.714844 26.582031 C 92.714844 33.28125 90.054688 39.703125 85.316406 44.441406 C 80.582031 49.179688 74.15625 51.839844 67.457031 51.839844 L 25.578125 51.839844 C 18.878906 51.839844 12.453125 49.179688 7.714844 44.441406 C 2.980469 39.703125 0.320312 33.28125 0.320312 26.582031 L 0.320312 25.257812 C 0.320312 18.558594 2.980469 12.136719 7.714844 7.398438 C 12.453125 2.660156 18.878906 0 25.578125 0 Z M 25.578125 0 " clip-rule="nonzero"/></clipPath><clipPath id="54adbb91ca"><rect x="0" width="93" y="0" height="52"/></clipPath><clipPath id="8c7f5c4180"><path d="M 25.644531 8.539062 L 67.25 8.539062 L 67.25 43.457031 L 25.644531 43.457031 Z M 25.644531 8.539062 " clip-rule="nonzero"/></clipPath><clipPath id="d37eb96093"><path d="M 25.644531 8.539062 L 67 8.539062 L 67 33 L 25.644531 33 Z M 25.644531 8.539062 " clip-rule="nonzero"/></clipPath></defs><g clip-path="url(#3d51ad0d51)"><g clip-path="url(#25396d557f)"><g transform="matrix(1, 0, 0, 1, 0.000000000000000056, 0)"><g clip-path="url(#54adbb91ca)"><g clip-path="url(#575c272f49)"><g clip-path="url(#233ada466d)"><path fill="#c1ff72" d="M 0.320312 0 L 92.660156 0 L 92.660156 51.839844 L 0.320312 51.839844 Z M 0.320312 0 " fill-opacity="1" fill-rule="nonzero"/></g></g></g></g></g></g><g clip-path="url(#8c7f5c4180)"><path stroke-linecap="butt" transform="matrix(1.73243, 0, 0, 1.745872, 18.902329, -3.680859)" fill="none" stroke-linejoin="miter" d="M 23.999902 23.999239 C 23.999902 24.265492 23.950297 24.520558 23.848832 24.764437 C 23.747366 25.010553 23.600806 25.227583 23.413659 25.413288 C 23.226512 25.601232 23.010053 25.746664 22.764282 25.847348 C 22.520765 25.950269 22.265975 25.999492 21.999911 25.999492 C 21.733847 25.999492 21.479056 25.950269 21.23554 25.847348 C 20.989769 25.746664 20.77331 25.601232 20.586163 25.413288 C 20.399016 25.227583 20.25471 25.010553 20.153245 24.764437 C 20.05178 24.520558 19.99992 24.265492 19.99992 23.999239 C 19.99992 23.735223 20.05178 23.480157 20.153245 23.234041 C 20.25471 22.990162 20.399016 22.773133 20.586163 22.585189 C 20.77331 22.397246 20.989769 22.254051 21.23554 22.15113 C 21.479056 22.050446 21.733847 21.998985 21.999911 21.998985 C 22.265975 21.998985 22.520765 22.050446 22.764282 22.15113 C 23.010053 22.254051 23.226512 22.397246 23.413659 22.585189 C 23.600806 22.773133 23.747366 22.990162 23.848832 23.234041 C 23.950297 23.480157 23.999902 23.735223 23.999902 23.999239 Z M 23.999902 23.999239 " stroke="#000000" stroke-width="2" stroke-opacity="1" stroke-miterlimit="10"/><path stroke-linecap="butt" transform="matrix(1.73243, 0, 0, 1.745872, 18.902329, -3.680859)" fill="none" stroke-linejoin="miter" d="M 15.001069 23.999239 C 15.001069 24.265492 14.949209 24.520558 14.847744 24.764437 C 14.746279 25.010553 14.601973 25.227583 14.414826 25.413288 C 14.227679 25.601232 14.01122 25.746664 13.765449 25.847348 C 13.519678 25.950269 13.264888 25.999492 13.001078 25.999492 C 12.735014 25.999492 12.480224 25.950269 12.234453 25.847348 C 11.988681 25.746664 11.772222 25.601232 11.585076 25.413288 C 11.397929 25.227583 11.253623 25.010553 11.152158 24.764437 C 11.050692 24.520558 11.001087 24.265492 11.001087 23.999239 C 11.001087 23.735223 11.050692 23.480157 11.152158 23.234041 C 11.253623 22.990162 11.397929 22.773133 11.585076 22.585189 C 11.772222 22.397246 11.988681 22.254051 12.234453 22.15113 C 12.480224 22.050446 12.735014 21.998985 13.001078 21.998985 C 13.264888 21.998985 13.519678 22.050446 13.765449 22.15113 C 14.01122 22.254051 14.227679 22.397246 14.414826 22.585189 C 14.601973 22.773133 14.746279 22.990162 14.847744 23.234041 C 14.949209 23.480157 15.001069 23.735223 15.001069 23.999239 Z M 15.001069 23.999239 " stroke="#000000" stroke-width="2" stroke-opacity="1" stroke-miterlimit="10"/></g><g clip-path="url(#d37eb96093)"><path fill="#000000" d="M 37.957031 13.777344 L 38.816406 17.269531 L 62.464844 17.269531 L 59.15625 29.492188 L 39.3125 29.492188 L 34.769531 11.183594 C 34.386719 9.632812 33 8.539062 31.410156 8.539062 L 27.566406 8.539062 C 26.609375 8.539062 25.832031 9.324219 25.832031 10.285156 C 25.832031 11.25 26.609375 12.03125 27.566406 12.03125 L 31.410156 12.03125 L 35.949219 30.335938 C 36.335938 31.890625 37.722656 32.984375 39.308594 32.984375 L 59.15625 32.984375 C 60.71875 32.984375 62.085938 31.929688 62.5 30.410156 L 67 13.777344 Z M 37.957031 13.777344 " fill-opacity="1" fill-rule="nonzero"/></g></svg>