<svg xmlns="http://www.w3.org/2000/svg" xmlns:xlink="http://www.w3.org/1999/xlink" width="277" zoomAndPan="magnify" viewBox="0 0 207.75 113.999999" height="152" preserveAspectRatio="xMidYMid meet" version="1.0"><defs><g/><clipPath id="050a49e2c8"><path d="M 0 12.191406 L 83.039062 12.191406 L 83.039062 102 L 0 102 Z M 0 12.191406 " clip-rule="nonzero"/></clipPath><clipPath id="9479ed5f60"><path d="M 83.039062 22.765625 L 83.039062 48.921875 C 83.039062 65.578125 76.011719 81.460938 63.683594 92.664062 L 62.28125 93.941406 C 50.507812 104.636719 32.53125 104.636719 20.761719 93.941406 L 19.355469 92.664062 C 7.027344 81.460938 0 65.578125 0 48.921875 L 0 22.765625 C 0 17.296875 4.980469 12.191406 10.796875 12.191406 L 72.246094 12.191406 C 78.058594 12.191406 83.039062 17.296875 83.039062 22.765625 Z M 83.039062 22.765625 " clip-rule="nonzero"/></clipPath><clipPath id="298846631b"><path d="M 0 0.191406 L 83.039062 0.191406 L 83.039062 90 L 0 90 Z M 0 0.191406 " clip-rule="nonzero"/></clipPath><clipPath id="0e29e0fa1b"><path d="M 83.039062 10.765625 L 83.039062 36.921875 C 83.039062 53.578125 76.011719 69.460938 63.683594 80.664062 L 62.28125 81.941406 C 50.507812 92.636719 32.53125 92.636719 20.761719 81.941406 L 19.355469 80.664062 C 7.027344 69.460938 0 53.578125 0 36.921875 L 0 10.765625 C 0 5.296875 4.980469 0.191406 10.796875 0.191406 L 72.246094 0.191406 C 78.058594 0.191406 83.039062 5.296875 83.039062 10.765625 Z M 83.039062 10.765625 " clip-rule="nonzero"/></clipPath><clipPath id="770ca105ae"><rect x="0" width="84" y="0" height="90"/></clipPath><clipPath id="d9e6d76e14"><path d="M 30.363281 81.574219 L 52.589844 81.574219 L 52.589844 105.527344 L 30.363281 105.527344 Z M 30.363281 81.574219 " clip-rule="nonzero"/></clipPath><clipPath id="e12da03d61"><path d="M 52.589844 84.394531 L 52.589844 91.367188 C 52.589844 95.804688 50.714844 100.039062 47.429688 103.027344 L 47.054688 103.367188 C 43.917969 106.21875 39.125 106.21875 35.984375 103.367188 L 35.609375 103.027344 C 32.324219 100.039062 30.449219 95.804688 30.449219 91.367188 L 30.449219 84.394531 C 30.449219 82.933594 31.78125 81.574219 33.328125 81.574219 L 49.710938 81.574219 C 51.261719 81.574219 52.589844 82.933594 52.589844 84.394531 Z M 52.589844 84.394531 " clip-rule="nonzero"/></clipPath><clipPath id="9cc44840d9"><path d="M 0.445312 0.574219 L 22.589844 0.574219 L 22.589844 24.527344 L 0.445312 24.527344 Z M 0.445312 0.574219 " clip-rule="nonzero"/></clipPath><clipPath id="29c05e2892"><path d="M 22.589844 3.394531 L 22.589844 10.367188 C 22.589844 14.804688 20.714844 19.039062 17.429688 22.027344 L 17.054688 22.367188 C 13.917969 25.21875 9.125 25.21875 5.984375 22.367188 L 5.609375 22.027344 C 2.324219 19.039062 0.449219 14.804688 0.449219 10.367188 L 0.449219 3.394531 C 0.449219 1.933594 1.78125 0.574219 3.328125 0.574219 L 19.710938 0.574219 C 21.261719 0.574219 22.589844 1.933594 22.589844 3.394531 Z M 22.589844 3.394531 " clip-rule="nonzero"/></clipPath><clipPath id="67dee2cb7a"><rect x="0" width="23" y="0" height="25"/></clipPath><clipPath id="39f3c45c49"><path d="M 13.824219 20.753906 L 69.257812 20.753906 L 69.257812 85.925781 L 13.824219 85.925781 Z M 13.824219 20.753906 " clip-rule="nonzero"/></clipPath><clipPath id="9606d4460b"><rect x="0" width="103" y="0" height="98"/></clipPath></defs><g clip-path="url(#050a49e2c8)"><g clip-path="url(#9479ed5f60)"><g transform="matrix(1, 0, 0, 1, 0, 12)"><g clip-path="url(#770ca105ae)"><g clip-path="url(#298846631b)"><g clip-path="url(#0e29e0fa1b)"><path fill="#c1ff72" d="M 0 0.191406 L 83.039062 0.191406 L 83.039062 100.746094 L 0 100.746094 Z M 0 0.191406 " fill-opacity="1" fill-rule="nonzero"/></g></g></g></g></g></g><g clip-path="url(#d9e6d76e14)"><g clip-path="url(#e12da03d61)"><g transform="matrix(1, 0, 0, 1, 30, 81)"><g clip-path="url(#67dee2cb7a)"><g clip-path="url(#9cc44840d9)"><g clip-path="url(#29c05e2892)"><path fill="#187abe" d="M 0.449219 0.574219 L 22.589844 0.574219 L 22.589844 27.382812 L 0.449219 27.382812 Z M 0.449219 0.574219 " fill-opacity="1" fill-rule="nonzero"/></g></g></g></g></g></g><g clip-path="url(#39f3c45c49)"><path fill="#333333" d="M 46.320312 57.917969 L 53.292969 66.199219 C 53.429688 66.359375 53.457031 66.425781 53.582031 66.582031 L 55.199219 68.515625 C 55.667969 69.023438 56.003906 69.519531 56.457031 70.039062 L 62.683594 77.722656 C 63.078125 78.199219 63.492188 78.746094 63.867188 79.320312 C 64.59375 80.433594 65.5625 81.820312 64.4375 83.265625 C 63.679688 84.246094 61.730469 84.546875 60.441406 83.714844 C 59.875 83.351562 59.375 82.898438 58.9375 82.441406 C 58.179688 81.65625 56.070312 78.785156 55.324219 77.707031 L 52.984375 74.488281 C 52.078125 73.023438 50.152344 70.476562 49.03125 68.746094 L 47.304688 66.25 C 46.871094 65.648438 46.605469 65.171875 46.183594 64.589844 L 43.902344 61.34375 C 44.222656 60.53125 45.777344 58.734375 46.320312 57.917969 Z M 67.59375 26.175781 C 67.035156 31.277344 64.683594 36.585938 62.316406 40.90625 C 61.59375 42.222656 59.558594 45.554688 58.421875 46.988281 C 58.167969 47.304688 58.042969 47.621094 57.75 47.949219 C 57.410156 48.324219 57.296875 48.523438 56.988281 48.90625 C 56.722656 49.234375 56.578125 49.464844 56.269531 49.828125 C 53.902344 52.636719 53.519531 53.25 49.3125 54.660156 C 48.625 54.890625 47.3125 55.175781 46.757812 55.460938 C 45.667969 56.011719 44.34375 57.890625 43.550781 58.875 L 40.789062 62.828125 C 40.324219 63.515625 39.929688 64.195312 39.46875 64.871094 C 39 65.554688 38.636719 66.171875 38.195312 66.855469 L 36.917969 68.933594 C 36.539062 69.601562 36.0625 70.347656 35.628906 71.003906 C 35.191406 71.667969 34.785156 72.429688 34.351562 73.085938 C 33.371094 74.578125 30.898438 78.675781 29.796875 80.140625 L 28.355469 82.058594 C 28.09375 82.359375 27.859375 82.738281 27.601562 83.03125 C 24.957031 86.070312 20.003906 82.9375 23.453125 78.773438 C 23.949219 78.175781 24.476562 77.515625 24.921875 76.890625 C 25.167969 76.550781 25.335938 76.269531 25.597656 75.925781 L 37.984375 59.921875 C 38.535156 59.285156 38.917969 58.667969 39.429688 58.007812 L 43.035156 53.269531 C 43.25 52.921875 43.5 52.582031 43.746094 52.25 L 47.945312 46.476562 C 48.988281 44.867188 50.417969 43 51.363281 41.542969 C 52.609375 39.613281 54.867188 36.621094 56.179688 34.65625 C 57.246094 33.0625 59.175781 30.585938 60.429688 28.929688 L 61.527344 27.53125 C 61.695312 27.324219 61.714844 27.246094 61.898438 27.039062 L 65.066406 23.492188 C 67.394531 21.589844 67.847656 23.855469 67.59375 26.175781 Z M 20 25.390625 C 20.40625 25.285156 21.316406 26.601562 21.480469 26.832031 C 21.929688 27.46875 22.3125 27.992188 22.785156 28.597656 C 24.496094 30.785156 26.335938 33.546875 28.007812 35.652344 C 28.976562 36.875 30.066406 38.386719 31.648438 37.824219 C 32.449219 37.542969 32.917969 37 32.753906 35.894531 C 32.578125 34.6875 29.144531 29.542969 28.210938 28.15625 L 25.773438 24.453125 C 25.410156 23.914062 24.863281 23.28125 24.65625 22.613281 C 25.199219 22.734375 25.902344 23.605469 26.273438 24.042969 C 26.546875 24.367188 26.621094 24.523438 26.960938 24.890625 C 27.824219 25.839844 29.113281 27.605469 29.683594 28.214844 L 32.972656 32.410156 C 34.3125 34.191406 37.375 37.882812 37.824219 39.550781 C 38.355469 41.53125 37.441406 42.960938 37.230469 44.734375 C 37.015625 46.5625 38.265625 47.878906 39.023438 48.90625 L 40.292969 50.617188 C 40.761719 51.191406 41.132812 51.679688 41.582031 52.296875 C 41.347656 52.839844 39.984375 54.429688 39.539062 55.132812 C 38.890625 54.4375 37.367188 52.207031 36.820312 51.597656 C 36.324219 51.046875 35.925781 50.324219 35.449219 49.804688 C 32.960938 47.078125 31.050781 48.617188 28.460938 47.394531 C 26.320312 46.386719 23.617188 42.90625 22.394531 40.894531 C 22.199219 40.570312 21.957031 40.28125 21.730469 39.933594 L 16.382812 31.175781 C 16.035156 30.59375 15.550781 29.742188 15.484375 28.917969 C 16.082031 29.195312 16.605469 29.972656 17.019531 30.535156 C 17.464844 31.152344 17.898438 31.6875 18.3125 32.3125 C 19.246094 33.726562 21.226562 36.160156 22.144531 37.59375 L 23.457031 39.347656 C 23.742188 39.738281 23.777344 39.859375 24.125 40.214844 C 24.941406 41.042969 26.035156 41.777344 27.214844 41.0625 C 28.710938 40.15625 27.324219 37.84375 26.691406 36.785156 C 25.933594 35.519531 25.175781 34.269531 24.417969 33.011719 L 20.859375 27.363281 C 20.542969 26.851562 19.859375 25.941406 20 25.390625 Z M 53.007812 54.910156 C 55.179688 53.75 56.226562 52.265625 57.695312 50.671875 L 58.460938 49.714844 C 61.796875 45.8125 65.699219 38.566406 67.386719 33.789062 C 68.265625 31.304688 71.726562 20.6875 66.117188 21.179688 C 65.652344 21.21875 65.078125 21.453125 64.757812 21.644531 C 62.925781 22.734375 61.898438 24.628906 60.484375 26.195312 C 59.898438 26.84375 59.40625 27.46875 58.914062 28.179688 L 56.609375 31.246094 C 55.960938 32.007812 53.691406 35.347656 52.9375 36.402344 L 45.613281 46.828125 C 45.117188 47.523438 44.578125 48.191406 44.128906 48.890625 C 43.910156 49.230469 43.640625 49.578125 43.410156 49.898438 L 42.839844 50.671875 C 42.613281 50.902344 42.800781 50.738281 42.605469 50.867188 C 42.300781 50.441406 41.90625 49.945312 41.570312 49.527344 L 40.042969 47.503906 C 39.867188 47.257812 39.703125 47.109375 39.53125 46.871094 C 37.46875 43.996094 41.183594 42.195312 38.738281 37.582031 C 38.042969 36.269531 35.882812 33.460938 34.832031 32.085938 C 34.507812 31.660156 34.167969 31.121094 33.804688 30.710938 C 33.054688 29.851562 31.519531 27.710938 30.75 26.855469 C 30.15625 26.195312 29.757812 25.519531 29.160156 24.898438 C 28.941406 24.667969 28.847656 24.558594 28.613281 24.296875 L 27.515625 22.992188 C 27.152344 22.585938 26.78125 22.210938 26.410156 21.792969 C 24.46875 19.613281 21.527344 21.101562 23.753906 24.550781 C 24.355469 25.476562 25.027344 26.394531 25.648438 27.363281 C 26.273438 28.339844 26.890625 29.230469 27.511719 30.199219 C 28.15625 31.203125 28.71875 32.097656 29.347656 33.066406 C 29.792969 33.75 30.789062 35.238281 30.960938 36.109375 C 30.519531 35.972656 30.285156 35.714844 30.027344 35.453125 C 28.9375 34.359375 27.726562 32.375 26.730469 31.082031 C 25.164062 29.046875 23.703125 26.929688 22.109375 24.957031 C 21.378906 24.050781 20.472656 23.230469 19.140625 23.941406 C 17.386719 24.875 18.578125 26.847656 19.300781 28.058594 C 20.027344 29.285156 20.886719 30.507812 21.65625 31.742188 C 22.503906 33.109375 25.875 38.191406 26.027344 39.519531 C 25.332031 39.292969 24.210938 37.628906 23.699219 36.902344 C 22.351562 34.988281 20.925781 33.164062 19.597656 31.214844 C 18.875 30.144531 17.277344 27.773438 16.089844 27.339844 C 15.398438 27.085938 14.632812 27.257812 14.25 27.683594 C 13.273438 28.769531 14.1875 30.457031 14.691406 31.425781 C 15.707031 33.371094 19.691406 40.242188 21.164062 42.128906 L 23.234375 44.957031 C 23.40625 45.195312 23.628906 45.363281 23.839844 45.589844 C 24.050781 45.8125 24.15625 45.988281 24.367188 46.21875 C 29.101562 51.359375 32.078125 48.332031 34.363281 50.894531 C 34.835938 51.429688 38.183594 56.097656 38.40625 56.617188 C 37.507812 57.632812 36.714844 58.8125 35.882812 59.925781 L 31.496094 65.617188 C 31.277344 65.910156 31.0625 66.152344 30.851562 66.410156 L 25.15625 73.757812 C 24.960938 74.011719 24.71875 74.289062 24.523438 74.5625 C 24.089844 75.175781 23.804688 75.609375 23.304688 76.222656 C 22.839844 76.792969 22.566406 77.265625 22.066406 77.867188 C 17.859375 82.972656 23.648438 87.84375 27.6875 85.136719 C 28.226562 84.773438 29.390625 83.511719 29.808594 82.933594 L 30.425781 82.117188 C 31.703125 80.464844 32.738281 78.722656 33.910156 76.964844 L 35.007812 75.183594 C 35.371094 74.601562 35.753906 73.984375 36.121094 73.414062 C 36.511719 72.800781 36.820312 72.273438 37.214844 71.632812 L 40.519531 66.300781 C 41.226562 65.175781 42.214844 63.976562 42.785156 62.824219 C 43.007812 62.976562 42.847656 62.832031 43.03125 63.039062 L 44.09375 64.570312 C 45.339844 66.59375 48.796875 71.480469 50.167969 73.367188 C 50.414062 73.707031 50.523438 73.917969 50.800781 74.265625 L 53.839844 78.519531 C 55.582031 80.851562 58.546875 85.242188 61.417969 85.796875 C 63.132812 86.125 64.953125 85.316406 65.675781 84.410156 C 66.679688 83.148438 67.011719 81.558594 66.097656 79.875 C 65.140625 78.109375 63.433594 76.167969 62.359375 74.691406 C 62.226562 74.511719 62.175781 74.394531 62.050781 74.230469 C 61.300781 73.25 60.449219 72.371094 59.714844 71.386719 C 58.691406 70.011719 56.863281 67.882812 55.730469 66.546875 L 48.390625 57.675781 C 48.203125 57.40625 47.96875 57.113281 47.785156 56.789062 C 49.417969 56.5 51.5625 55.683594 53.007812 54.910156 Z M 53.007812 54.910156 " fill-opacity="1" fill-rule="evenodd"/></g><path fill="#333333" d="M 65.03125 28.519531 C 64.558594 28.855469 64.785156 28.699219 64.445312 29.785156 C 64.285156 30.300781 64.148438 30.746094 63.980469 31.238281 C 62.851562 34.5 60.785156 38.734375 58.917969 41.53125 C 58.792969 41.714844 58.671875 41.871094 58.53125 42.101562 C 57.625 43.597656 56.734375 44.707031 55.765625 46.050781 C 55.59375 46.289062 55 46.996094 54.929688 47.160156 C 54.628906 47.878906 55.34375 48.144531 55.828125 47.847656 C 56.558594 47.398438 59.847656 42.496094 60.601562 41.199219 C 62.871094 37.308594 64.003906 35.066406 65.480469 30.726562 C 65.628906 30.285156 65.859375 29.664062 65.886719 29.230469 C 65.917969 28.671875 65.539062 28.160156 65.03125 28.519531 Z M 65.03125 28.519531 " fill-opacity="1" fill-rule="evenodd"/><g transform="matrix(1, 0, 0, 1, 92, 8)"><g clip-path="url(#9606d4460b)"><g fill="#83c249" fill-opacity="1"><g transform="translate(0.504363, 39.905685)"><g><path d="M 4.21875 0 L 4.21875 -27.515625 L 9.828125 -27.515625 L 22.25 -9.296875 L 21.234375 -9.296875 L 33.53125 -27.515625 L 39.1875 -27.515625 L 39.1875 0 L 33.765625 0 L 33.765625 -20.015625 L 34.265625 -20.015625 L 23.421875 -4.296875 L 19.9375 -4.296875 L 9.0625 -20.0625 L 9.640625 -20.0625 L 9.640625 0 Z M 4.21875 0 "/></g></g></g><g fill="#83c249" fill-opacity="1"><g transform="translate(43.873007, 39.905685)"><g><path d="M 18.234375 0.390625 C 13.460938 0.390625 9.867188 -0.585938 7.453125 -2.546875 C 5.035156 -4.515625 3.828125 -7.398438 3.828125 -11.203125 L 3.828125 -27.515625 L 9.640625 -27.515625 L 9.640625 -11.359375 C 9.640625 -9.097656 10.359375 -7.394531 11.796875 -6.25 C 13.242188 -5.101562 15.390625 -4.53125 18.234375 -4.53125 C 21.085938 -4.53125 23.222656 -5.101562 24.640625 -6.25 C 26.066406 -7.394531 26.78125 -9.097656 26.78125 -11.359375 L 26.78125 -27.515625 L 32.546875 -27.515625 L 32.546875 -11.203125 C 32.546875 -7.398438 31.347656 -4.515625 28.953125 -2.546875 C 26.566406 -0.585938 22.992188 0.390625 18.234375 0.390625 Z M 18.234375 0.390625 "/></g></g></g><g fill="#187abe" fill-opacity="1"><g transform="translate(1.132918, 82.745364)"><g><path d="M 4.140625 0 L 4.140625 -27.515625 L 26.9375 -27.515625 L 26.9375 -22.984375 L 9.796875 -22.984375 L 9.796875 -16.234375 L 25.640625 -16.234375 L 25.640625 -11.703125 L 9.796875 -11.703125 L 9.796875 -4.53125 L 26.9375 -4.53125 L 26.9375 0 Z M 4.140625 0 "/></g></g></g><g fill="#187abe" fill-opacity="1"><g transform="translate(30.565818, 82.745364)"><g><path d="M 11.3125 0.390625 C 9.601562 0.390625 8.082031 0.117188 6.75 -0.421875 C 5.425781 -0.972656 4.390625 -1.71875 3.640625 -2.65625 C 2.898438 -3.59375 2.53125 -4.660156 2.53125 -5.859375 C 2.53125 -7.078125 2.929688 -8.109375 3.734375 -8.953125 C 4.546875 -9.796875 5.875 -10.4375 7.71875 -10.875 C 9.570312 -11.320312 12.0625 -11.546875 15.1875 -11.546875 L 19.59375 -11.546875 L 19.59375 -8.3125 L 15.34375 -8.3125 C 13.882812 -8.3125 12.675781 -8.265625 11.71875 -8.171875 C 10.769531 -8.085938 10.023438 -7.953125 9.484375 -7.765625 C 8.941406 -7.585938 8.550781 -7.351562 8.3125 -7.0625 C 8.082031 -6.78125 7.96875 -6.429688 7.96875 -6.015625 C 7.96875 -5.203125 8.347656 -4.570312 9.109375 -4.125 C 9.878906 -3.6875 10.941406 -3.46875 12.296875 -3.46875 C 13.492188 -3.46875 14.59375 -3.671875 15.59375 -4.078125 C 16.59375 -4.484375 17.382812 -5.035156 17.96875 -5.734375 C 18.5625 -6.441406 18.859375 -7.238281 18.859375 -8.125 L 18.859375 -12.171875 C 18.859375 -13.347656 18.40625 -14.195312 17.5 -14.71875 C 16.601562 -15.238281 15.242188 -15.5 13.421875 -15.5 C 11.910156 -15.5 10.453125 -15.328125 9.046875 -14.984375 C 7.648438 -14.648438 6.3125 -14.128906 5.03125 -13.421875 L 3.515625 -17.296875 C 4.453125 -17.785156 5.476562 -18.207031 6.59375 -18.5625 C 7.71875 -18.914062 8.894531 -19.1875 10.125 -19.375 C 11.363281 -19.570312 12.582031 -19.671875 13.78125 -19.671875 C 16.039062 -19.671875 17.9375 -19.367188 19.46875 -18.765625 C 21.007812 -18.171875 22.179688 -17.273438 22.984375 -16.078125 C 23.796875 -14.878906 24.203125 -13.316406 24.203125 -11.390625 L 24.203125 0 L 19.203125 0 L 19.203125 -4.21875 L 19.4375 -4.21875 C 19.050781 -3.300781 18.484375 -2.488281 17.734375 -1.78125 C 16.992188 -1.082031 16.085938 -0.546875 15.015625 -0.171875 C 13.953125 0.203125 12.71875 0.390625 11.3125 0.390625 Z M 11.3125 0.390625 "/></g></g></g><g fill="#187abe" fill-opacity="1"><g transform="translate(58.203079, 82.745364)"><g><path d="M 13.890625 0.390625 C 10.984375 0.390625 8.753906 -0.289062 7.203125 -1.65625 C 5.648438 -3.019531 4.875 -5.003906 4.875 -7.609375 L 4.875 -15.109375 L 0.234375 -15.109375 L 0.234375 -19.28125 L 5.03125 -19.28125 L 5.03125 -24.859375 L 10.453125 -24.859375 L 10.453125 -19.28125 L 18.234375 -19.28125 L 18.234375 -15.109375 L 10.453125 -15.109375 L 10.453125 -7.921875 C 10.453125 -6.617188 10.828125 -5.664062 11.578125 -5.0625 C 12.335938 -4.46875 13.488281 -4.171875 15.03125 -4.171875 C 15.625 -4.171875 16.191406 -4.207031 16.734375 -4.28125 C 17.285156 -4.363281 17.820312 -4.484375 18.34375 -4.640625 L 19.171875 -0.546875 C 18.460938 -0.234375 17.671875 0 16.796875 0.15625 C 15.929688 0.3125 14.960938 0.390625 13.890625 0.390625 Z M 13.890625 0.390625 "/></g></g></g><g fill="#187abe" fill-opacity="1"><g transform="translate(77.408636, 82.745364)"><g><path d="M 12.484375 0.390625 C 11.023438 0.390625 9.664062 0.296875 8.40625 0.109375 C 7.144531 -0.0664062 6 -0.300781 4.96875 -0.59375 C 3.945312 -0.894531 3.097656 -1.269531 2.421875 -1.71875 L 3.671875 -5.421875 C 4.503906 -4.984375 5.425781 -4.617188 6.4375 -4.328125 C 7.457031 -4.046875 8.507812 -3.832031 9.59375 -3.6875 C 10.6875 -3.539062 11.742188 -3.46875 12.765625 -3.46875 C 14.273438 -3.46875 15.445312 -3.648438 16.28125 -4.015625 C 17.113281 -4.378906 17.53125 -4.898438 17.53125 -5.578125 C 17.53125 -6.097656 17.320312 -6.507812 16.90625 -6.8125 C 16.488281 -7.113281 15.769531 -7.316406 14.75 -7.421875 L 8.984375 -8.078125 C 6.953125 -8.285156 5.40625 -8.875 4.34375 -9.84375 C 3.289062 -10.820312 2.765625 -12.015625 2.765625 -13.421875 C 2.765625 -14.617188 3.164062 -15.6875 3.96875 -16.625 C 4.78125 -17.5625 5.9375 -18.300781 7.4375 -18.84375 C 8.9375 -19.394531 10.75 -19.671875 12.875 -19.671875 C 14.207031 -19.671875 15.457031 -19.578125 16.625 -19.390625 C 17.800781 -19.210938 18.847656 -18.960938 19.765625 -18.640625 C 20.691406 -18.316406 21.441406 -17.929688 22.015625 -17.484375 L 20.453125 -13.96875 C 19.703125 -14.382812 18.894531 -14.722656 18.03125 -14.984375 C 17.175781 -15.242188 16.28125 -15.4375 15.34375 -15.5625 C 14.40625 -15.695312 13.46875 -15.765625 12.53125 -15.765625 C 10.882812 -15.765625 9.6875 -15.566406 8.9375 -15.171875 C 8.1875 -14.785156 7.8125 -14.269531 7.8125 -13.625 C 7.8125 -13.101562 8.007812 -12.6875 8.40625 -12.375 C 8.8125 -12.0625 9.519531 -11.851562 10.53125 -11.75 L 16.234375 -11.078125 C 18.347656 -10.867188 19.929688 -10.316406 20.984375 -9.421875 C 22.035156 -8.523438 22.5625 -7.3125 22.5625 -5.78125 C 22.5625 -4.53125 22.148438 -3.4375 21.328125 -2.5 C 20.503906 -1.5625 19.335938 -0.84375 17.828125 -0.34375 C 16.328125 0.144531 14.546875 0.390625 12.484375 0.390625 Z M 12.484375 0.390625 "/></g></g></g></g></g></svg>